<svg xmlns="http://www.w3.org/2000/svg" xmlns:xlink="http://www.w3.org/1999/xlink" width="1024" zoomAndPan="magnify" viewBox="0 0 768 576" height="768" preserveAspectRatio="xMidYMid meet" version="1.0"><defs><g/><clipPath id="e6065b38fb"><path d="M 390 113.773438 L 558.519531 113.773438 L 558.519531 282 L 390 282 Z M 390 113.773438 " clip-rule="nonzero"/></clipPath><clipPath id="efa1b7247d"><path d="M 209.769531 113.773438 L 378 113.773438 L 378 282 L 209.769531 282 Z M 209.769531 113.773438 " clip-rule="nonzero"/></clipPath><clipPath id="4dd05bad95"><path d="M 390 294 L 558.519531 294 L 558.519531 462.523438 L 390 462.523438 Z M 390 294 " clip-rule="nonzero"/></clipPath><clipPath id="25461443ce"><path d="M 209.769531 294 L 378 294 L 378 462.523438 L 209.769531 462.523438 Z M 209.769531 294 " clip-rule="nonzero"/></clipPath><clipPath id="dc5d173cb1"><path d="M 289.898438 193.898438 L 478.101562 193.898438 L 478.101562 382.101562 L 289.898438 382.101562 Z M 289.898438 193.898438 " clip-rule="nonzero"/></clipPath><clipPath id="72e1af8059"><path d="M 384 193.898438 C 332.027344 193.898438 289.898438 236.027344 289.898438 288 C 289.898438 339.972656 332.027344 382.101562 384 382.101562 C 435.972656 382.101562 478.101562 339.972656 478.101562 288 C 478.101562 236.027344 435.972656 193.898438 384 193.898438 Z M 384 193.898438 " clip-rule="nonzero"/></clipPath><clipPath id="c790de3937"><path d="M 72.023438 142.945312 L 218.785156 142.945312 L 218.785156 219.933594 L 72.023438 219.933594 Z M 72.023438 142.945312 " clip-rule="nonzero"/></clipPath><clipPath id="7f63e62506"><path d="M 204.167969 219.933594 L 86.535156 219.933594 C 78.539062 219.933594 72.023438 213.421875 72.023438 205.425781 L 72.023438 157.457031 C 72.023438 149.460938 78.539062 142.945312 86.535156 142.945312 L 204.167969 142.945312 C 212.160156 142.945312 218.675781 149.460938 218.675781 157.457031 L 218.675781 205.425781 C 218.675781 213.421875 212.160156 219.933594 204.167969 219.933594 Z M 204.167969 219.933594 " clip-rule="nonzero"/></clipPath><clipPath id="d7402570a1"><path d="M 558.226562 357.949219 L 704.988281 357.949219 L 704.988281 434.9375 L 558.226562 434.9375 Z M 558.226562 357.949219 " clip-rule="nonzero"/></clipPath><clipPath id="dd8ba665ea"><path d="M 690.371094 434.9375 L 572.738281 434.9375 C 564.742188 434.9375 558.226562 428.421875 558.226562 420.429688 L 558.226562 372.460938 C 558.226562 364.464844 564.742188 357.949219 572.738281 357.949219 L 690.371094 357.949219 C 698.363281 357.949219 704.878906 364.464844 704.878906 372.460938 L 704.878906 420.429688 C 704.878906 428.421875 698.363281 434.9375 690.371094 434.9375 Z M 690.371094 434.9375 " clip-rule="nonzero"/></clipPath><clipPath id="36408d2495"><path d="M 558.226562 145.578125 L 704.988281 145.578125 L 704.988281 222.566406 L 558.226562 222.566406 Z M 558.226562 145.578125 " clip-rule="nonzero"/></clipPath><clipPath id="567ccefdd8"><path d="M 690.371094 222.566406 L 572.738281 222.566406 C 564.742188 222.566406 558.226562 216.050781 558.226562 208.054688 L 558.226562 160.085938 C 558.226562 152.089844 564.742188 145.578125 572.738281 145.578125 L 690.371094 145.578125 C 698.363281 145.578125 704.878906 152.089844 704.878906 160.085938 L 704.878906 208.054688 C 704.878906 216.050781 698.363281 222.566406 690.371094 222.566406 Z M 690.371094 222.566406 " clip-rule="nonzero"/></clipPath><clipPath id="a1fcf464ca"><path d="M 72.023438 357.949219 L 218.785156 357.949219 L 218.785156 434.9375 L 72.023438 434.9375 Z M 72.023438 357.949219 " clip-rule="nonzero"/></clipPath><clipPath id="c554dc09bc"><path d="M 204.167969 434.9375 L 86.535156 434.9375 C 78.539062 434.9375 72.023438 428.421875 72.023438 420.429688 L 72.023438 372.460938 C 72.023438 364.464844 78.539062 357.949219 86.535156 357.949219 L 204.167969 357.949219 C 212.160156 357.949219 218.675781 364.464844 218.675781 372.460938 L 218.675781 420.429688 C 218.675781 428.421875 212.160156 434.9375 204.167969 434.9375 Z M 204.167969 434.9375 " clip-rule="nonzero"/></clipPath><clipPath id="7b2d921d71"><path d="M 452 168.769531 L 512.632812 168.769531 L 512.632812 243 L 452 243 Z M 452 168.769531 " clip-rule="nonzero"/></clipPath><clipPath id="d26b0b3838"><path d="M 480 344.652344 L 516.296875 344.652344 L 516.296875 380 L 480 380 Z M 480 344.652344 " clip-rule="nonzero"/></clipPath><clipPath id="44a8f685bd"><path d="M 448.046875 377 L 484 377 L 484 412.902344 L 448.046875 412.902344 Z M 448.046875 377 " clip-rule="nonzero"/></clipPath><clipPath id="13c37ac6e1"><path d="M 267.390625 361.027344 L 322.890625 361.027344 L 322.890625 412.777344 L 267.390625 412.777344 Z M 267.390625 361.027344 " clip-rule="nonzero"/></clipPath><clipPath id="f1c9ff661f"><path d="M 250 177.019531 L 301.253906 177.019531 L 301.253906 231.769531 L 250 231.769531 Z M 250 177.019531 " clip-rule="nonzero"/></clipPath></defs><rect x="-76.8" width="921.6" fill="#ffffff" y="-57.6" height="691.2" fill-opacity="1"/><rect x="-76.8" width="921.6" fill="#ffffff" y="-57.6" height="691.2" fill-opacity="1"/><g clip-path="url(#e6065b38fb)"><path fill="#ffb9bd" d="M 408.757812 262.957031 C 408.851562 263.050781 408.949219 263.144531 409.042969 263.242188 C 420.394531 274.746094 435.789062 281.367188 451.949219 281.367188 L 558.226562 281.367188 C 556.570312 189.550781 482.449219 115.429688 390.632812 113.773438 L 390.632812 220.046875 C 390.632812 236.210938 397.25 251.601562 408.757812 262.957031 Z M 408.757812 262.957031 " fill-opacity="1" fill-rule="nonzero"/></g><g clip-path="url(#efa1b7247d)"><path fill="#ffbd59" d="M 358.957031 263.242188 C 359.050781 263.144531 359.148438 263.050781 359.242188 262.957031 C 370.746094 251.601562 377.367188 236.210938 377.367188 220.050781 L 377.367188 113.773438 C 285.550781 115.429688 211.429688 189.550781 209.769531 281.367188 L 316.050781 281.367188 C 332.210938 281.367188 347.605469 274.746094 358.957031 263.242188 Z M 358.957031 263.242188 " fill-opacity="1" fill-rule="nonzero"/></g><g clip-path="url(#4dd05bad95)"><path fill="#ffd4a7" d="M 409.042969 312.757812 C 408.949219 312.851562 408.851562 312.949219 408.757812 313.042969 C 397.25 324.394531 390.632812 339.789062 390.632812 355.949219 L 390.632812 462.226562 C 482.449219 460.570312 556.570312 386.449219 558.226562 294.632812 L 451.949219 294.632812 C 435.789062 294.632812 420.394531 301.253906 409.042969 312.757812 Z M 409.042969 312.757812 " fill-opacity="1" fill-rule="nonzero"/></g><g clip-path="url(#25461443ce)"><path fill="#ffe3d5" d="M 359.242188 313.042969 C 359.148438 312.949219 359.050781 312.851562 358.957031 312.757812 C 347.605469 301.253906 332.210938 294.632812 316.050781 294.632812 L 209.769531 294.632812 C 211.429688 386.449219 285.550781 460.570312 377.367188 462.226562 L 377.367188 355.949219 C 377.367188 339.789062 370.746094 324.394531 359.242188 313.042969 Z M 359.242188 313.042969 " fill-opacity="1" fill-rule="nonzero"/></g><path fill="#000000" d="M 359.242188 313.042969 C 370.523438 324.089844 377.023438 339.117188 377.355469 354.902344 C 361.964844 353.28125 347.597656 346.402344 336.6875 335.429688 C 325.773438 324.453125 318.976562 310.050781 317.445312 294.648438 C 333.109375 295.070312 347.992188 301.5625 358.957031 312.757812 Z M 359.242188 313.042969 " fill-opacity="0.1" fill-rule="nonzero"/><path fill="#000000" d="M 377.355469 221.101562 C 377.023438 236.882812 370.519531 251.910156 359.242188 262.957031 C 359.148438 263.050781 359.050781 263.144531 358.957031 263.242188 C 347.992188 274.4375 333.105469 280.929688 317.445312 281.347656 C 318.980469 265.949219 325.773438 251.546875 336.6875 240.574219 C 347.601562 229.597656 361.964844 222.71875 377.355469 221.101562 Z M 377.355469 221.101562 " fill-opacity="0.1" fill-rule="nonzero"/><path fill="#000000" d="M 409.042969 312.757812 C 420.25 301.398438 435.394531 294.800781 451.328125 294.636719 C 449.785156 310.171875 442.882812 324.6875 431.8125 335.699219 C 420.738281 346.707031 406.183594 353.523438 390.636719 354.976562 C 390.953125 339.167969 397.457031 324.109375 408.757812 313.042969 Z M 409.042969 312.757812 " fill-opacity="0.1" fill-rule="nonzero"/><path fill="#000000" d="M 408.757812 262.957031 C 397.480469 251.828125 390.898438 236.828125 390.636719 221.023438 C 406.183594 222.476562 420.738281 229.292969 431.8125 240.300781 C 442.882812 251.308594 449.78125 265.828125 451.328125 281.363281 C 435.390625 281.144531 420.191406 274.628906 409.042969 263.242188 C 408.949219 263.144531 408.851562 263.050781 408.757812 262.957031 Z M 408.757812 262.957031 " fill-opacity="0.1" fill-rule="nonzero"/><g clip-path="url(#dc5d173cb1)"><g clip-path="url(#72e1af8059)"><path fill="#ffffff" d="M 289.898438 193.898438 L 478.101562 193.898438 L 478.101562 382.101562 L 289.898438 382.101562 Z M 289.898438 193.898438 " fill-opacity="1" fill-rule="nonzero"/></g></g><path stroke-linecap="butt" transform="matrix(0.75, 0, 0, 0.75, 445.968989, 130.440454)" fill="none" stroke-linejoin="miter" d="M -0.000319224 2.50127 L 144.567395 2.50127 " stroke="#ffb9bd" stroke-width="5" stroke-opacity="1" stroke-miterlimit="4"/><path stroke-linecap="round" transform="matrix(0.75, 0, 0, 0.75, 445.968989, 130.440454)" fill-opacity="1" fill="#ffb9bd" fill-rule="nonzero" stroke-linejoin="round" d="M 160.817396 2.50127 C 160.817396 6.641895 157.458021 10.00127 153.317395 10.00127 C 149.171562 10.00127 145.817395 6.641895 145.817395 2.50127 C 145.817395 -1.644563 149.171562 -4.99873 153.317395 -4.99873 C 157.458021 -4.99873 160.817396 -1.644563 160.817396 2.50127 " stroke="#ffb9bd" stroke-width="5" stroke-opacity="1" stroke-miterlimit="4"/><path stroke-linecap="butt" transform="matrix(0.75, 0, 0, 0.75, 200.34928, 444.887281)" fill="none" stroke-linejoin="miter" d="M 18.747836 2.49925 L 163.315551 2.49925 " stroke="#ffe3d5" stroke-width="5" stroke-opacity="1" stroke-miterlimit="4"/><path stroke-linecap="round" transform="matrix(0.75, 0, 0, 0.75, 200.34928, 444.887281)" fill-opacity="1" fill="#ffe3d5" fill-rule="nonzero" stroke-linejoin="round" d="M 2.497836 2.49925 C 2.497836 -1.641375 5.857211 -5.00075 9.997836 -5.00075 C 14.143669 -5.00075 17.497836 -1.641375 17.497836 2.49925 C 17.497836 6.639875 14.143669 9.99925 9.997836 9.99925 C 5.857211 9.99925 2.497836 6.639875 2.497836 2.49925 " stroke="#ffe3d5" stroke-width="5" stroke-opacity="1" stroke-miterlimit="4"/><path stroke-linecap="butt" transform="matrix(0.75, 0, 0, 0.75, 195.717121, 128.565454)" fill="none" stroke-linejoin="miter" d="M 18.752172 2.50127 L 163.314678 2.50127 " stroke="#ffbd59" stroke-width="5" stroke-opacity="1" stroke-miterlimit="4"/><path stroke-linecap="round" transform="matrix(0.75, 0, 0, 0.75, 195.717121, 128.565454)" fill-opacity="1" fill="#ffbd59" fill-rule="nonzero" stroke-linejoin="round" d="M 2.502172 2.50127 C 2.502172 -1.644564 5.856338 -4.99873 10.002172 -4.99873 C 14.142797 -4.99873 17.502172 -1.644564 17.502172 2.50127 C 17.502172 6.641895 14.142797 10.00127 10.002172 10.00127 C 5.856338 10.00127 2.502172 6.641895 2.502172 2.50127 " stroke="#ffbd59" stroke-width="5" stroke-opacity="1" stroke-miterlimit="4"/><path stroke-linecap="butt" transform="matrix(0.75, 0, 0, 0.75, 442.509558, 443.012282)" fill="none" stroke-linejoin="miter" d="M -0.00232675 2.49925 L 144.565388 2.49925 " stroke="#ffd4a7" stroke-width="5" stroke-opacity="1" stroke-miterlimit="4"/><path stroke-linecap="round" transform="matrix(0.75, 0, 0, 0.75, 442.509558, 443.012282)" fill-opacity="1" fill="#ffd4a7" fill-rule="nonzero" stroke-linejoin="round" d="M 160.815388 2.49925 C 160.815388 6.639875 157.456013 9.99925 153.315388 9.99925 C 149.174763 9.99925 145.815388 6.639875 145.815388 2.49925 C 145.815388 -1.641375 149.174763 -5.000751 153.315388 -5.000751 C 157.456013 -5.000751 160.815388 -1.641375 160.815388 2.49925 " stroke="#ffd4a7" stroke-width="5" stroke-opacity="1" stroke-miterlimit="4"/><g clip-path="url(#c790de3937)"><g clip-path="url(#7f63e62506)"><path fill="#ffbd59" d="M 72.023438 142.945312 L 218.78125 142.945312 L 218.78125 219.933594 L 72.023438 219.933594 Z M 72.023438 142.945312 " fill-opacity="1" fill-rule="nonzero"/></g></g><g clip-path="url(#d7402570a1)"><g clip-path="url(#dd8ba665ea)"><path fill="#ffd4a7" d="M 558.226562 357.949219 L 704.988281 357.949219 L 704.988281 434.9375 L 558.226562 434.9375 Z M 558.226562 357.949219 " fill-opacity="1" fill-rule="nonzero"/></g></g><g clip-path="url(#36408d2495)"><g clip-path="url(#567ccefdd8)"><path fill="#ffb9bd" d="M 558.226562 145.578125 L 704.988281 145.578125 L 704.988281 222.566406 L 558.226562 222.566406 Z M 558.226562 145.578125 " fill-opacity="1" fill-rule="nonzero"/></g></g><g clip-path="url(#a1fcf464ca)"><g clip-path="url(#c554dc09bc)"><path fill="#ffe3d5" d="M 72.023438 357.949219 L 218.78125 357.949219 L 218.78125 434.9375 L 72.023438 434.9375 Z M 72.023438 357.949219 " fill-opacity="1" fill-rule="nonzero"/></g></g><g clip-path="url(#7b2d921d71)"><path fill="#000000" d="M 459.800781 191.910156 C 459.582031 192.339844 459.242188 192.625 458.789062 192.765625 C 458.644531 192.808594 458.5 192.828125 458.351562 192.828125 C 458.089844 192.828125 457.847656 192.765625 457.621094 192.632812 C 455.890625 191.6875 454.320312 190.773438 452.8125 189.835938 C 452.527344 189.632812 452.328125 189.367188 452.214844 189.035156 C 452.199219 188.992188 452.179688 188.957031 452.15625 188.921875 L 452.085938 188.789062 L 452.085938 188.648438 C 452.082031 188.3125 452.160156 187.996094 452.320312 187.703125 C 452.480469 187.410156 452.703125 187.175781 452.984375 187 C 453.21875 186.863281 453.46875 186.792969 453.738281 186.792969 C 454.007812 186.792969 454.257812 186.855469 454.496094 186.988281 C 456.175781 187.90625 457.835938 188.890625 459.253906 189.734375 C 459.429688 189.847656 459.578125 189.988281 459.699219 190.15625 C 459.820312 190.324219 459.910156 190.511719 459.960938 190.714844 C 460.011719 190.917969 460.023438 191.121094 459.996094 191.328125 C 459.96875 191.535156 459.902344 191.730469 459.800781 191.910156 Z M 483.257812 177.613281 L 483.300781 177.613281 C 483.742188 177.625 484.121094 177.476562 484.445312 177.175781 C 484.808594 176.796875 484.984375 176.347656 484.96875 175.824219 C 484.980469 175.230469 484.980469 174.640625 484.980469 174.050781 L 484.96875 172.902344 L 484.96875 172.515625 C 484.96875 171.925781 484.980469 171.335938 484.96875 170.746094 C 484.984375 170.515625 484.949219 170.292969 484.871094 170.074219 C 484.792969 169.855469 484.671875 169.664062 484.515625 169.496094 C 484.355469 169.328125 484.171875 169.195312 483.957031 169.105469 C 483.746094 169.015625 483.523438 168.96875 483.292969 168.96875 C 483.0625 168.972656 482.84375 169.015625 482.632812 169.109375 C 482.417969 169.203125 482.234375 169.332031 482.078125 169.503906 C 481.917969 169.671875 481.800781 169.867188 481.722656 170.082031 C 481.644531 170.300781 481.613281 170.527344 481.628906 170.757812 C 481.617188 172.445312 481.609375 174.125 481.617188 175.8125 C 481.597656 176.042969 481.625 176.269531 481.695312 176.488281 C 481.769531 176.710938 481.886719 176.90625 482.042969 177.078125 C 482.199219 177.25 482.382812 177.382812 482.59375 177.476562 C 482.804688 177.566406 483.027344 177.613281 483.257812 177.613281 Z M 458.320312 213.707031 L 458.140625 213.726562 C 457.972656 213.738281 457.820312 213.78125 457.671875 213.859375 L 456.84375 214.335938 C 455.476562 215.121094 454.109375 215.902344 452.761719 216.71875 C 452.597656 216.832031 452.457031 216.972656 452.34375 217.144531 C 452.230469 217.3125 452.152344 217.496094 452.113281 217.695312 C 452.070312 217.894531 452.066406 218.09375 452.097656 218.292969 C 452.132812 218.492188 452.203125 218.679688 452.308594 218.851562 C 452.445312 219.121094 452.644531 219.335938 452.898438 219.492188 C 453.15625 219.652344 453.433594 219.734375 453.734375 219.738281 C 453.984375 219.742188 454.214844 219.683594 454.433594 219.566406 C 455.984375 218.710938 457.570312 217.796875 459.304688 216.75 C 459.617188 216.550781 459.828125 216.273438 459.941406 215.921875 C 460.054688 215.570312 460.042969 215.21875 459.902344 214.875 C 459.796875 214.527344 459.601562 214.242188 459.308594 214.023438 C 459.015625 213.808594 458.6875 213.703125 458.320312 213.707031 Z M 512.589844 188.515625 C 512.566406 188.195312 512.464844 187.902344 512.289062 187.632812 C 512.113281 187.367188 511.882812 187.160156 511.597656 187.007812 C 511.324219 186.875 511.03125 186.8125 510.722656 186.824219 C 510.417969 186.839844 510.132812 186.921875 509.867188 187.082031 C 508.390625 187.914062 506.910156 188.78125 505.441406 189.652344 C 505.246094 189.761719 505.078125 189.902344 504.941406 190.078125 C 504.800781 190.253906 504.699219 190.449219 504.636719 190.664062 C 504.574219 190.882812 504.558594 191.101562 504.582031 191.324219 C 504.609375 191.546875 504.675781 191.757812 504.785156 191.953125 C 504.929688 192.21875 505.128906 192.429688 505.386719 192.582031 C 505.644531 192.738281 505.921875 192.816406 506.222656 192.816406 C 506.535156 192.8125 506.824219 192.734375 507.09375 192.574219 C 508.5625 191.75 510.121094 190.855469 511.628906 189.929688 C 511.914062 189.726562 512.140625 189.472656 512.308594 189.164062 C 512.367188 189.0625 512.429688 188.972656 512.488281 188.882812 L 512.621094 188.71875 Z M 511.628906 216.574219 C 510.160156 215.722656 508.691406 214.871094 507.214844 214.023438 C 506.761719 213.734375 506.277344 213.65625 505.757812 213.789062 C 505.320312 213.910156 504.996094 214.171875 504.785156 214.570312 C 504.675781 214.777344 504.609375 215 504.589844 215.234375 C 504.570312 215.46875 504.59375 215.699219 504.667969 215.921875 C 504.738281 216.144531 504.851562 216.34375 505.007812 216.523438 C 505.160156 216.699219 505.34375 216.839844 505.554688 216.941406 C 506.960938 217.765625 508.378906 218.589844 509.808594 219.414062 C 509.996094 219.511719 510.191406 219.59375 510.394531 219.65625 L 510.628906 219.738281 L 510.738281 219.738281 C 511.128906 219.753906 511.480469 219.640625 511.792969 219.40625 C 512.105469 219.171875 512.3125 218.867188 512.410156 218.488281 C 512.523438 218.117188 512.507812 217.75 512.359375 217.390625 C 512.214844 217.03125 511.96875 216.757812 511.628906 216.574219 Z M 489.890625 234.222656 L 483.90625 234.222656 C 483.730469 234.222656 483.558594 234.253906 483.394531 234.324219 C 483.230469 234.390625 483.085938 234.488281 482.960938 234.613281 C 482.835938 234.738281 482.738281 234.886719 482.671875 235.050781 C 482.605469 235.214844 482.570312 235.386719 482.570312 235.5625 L 482.570312 241.625 C 482.570312 241.804688 482.605469 241.972656 482.671875 242.140625 C 482.738281 242.304688 482.835938 242.449219 482.960938 242.574219 C 483.085938 242.699219 483.230469 242.796875 483.394531 242.867188 C 483.558594 242.933594 483.730469 242.96875 483.90625 242.96875 L 489.890625 242.96875 C 490.066406 242.964844 490.238281 242.933594 490.398438 242.863281 C 490.5625 242.792969 490.707031 242.699219 490.832031 242.570312 C 490.953125 242.445312 491.050781 242.300781 491.117188 242.136719 C 491.183594 241.972656 491.21875 241.800781 491.21875 241.625 L 491.21875 235.5625 C 491.21875 235.386719 491.183594 235.214844 491.117188 235.050781 C 491.050781 234.886719 490.953125 234.742188 490.832031 234.617188 C 490.707031 234.492188 490.5625 234.394531 490.398438 234.324219 C 490.238281 234.257812 490.066406 234.222656 489.890625 234.222656 Z M 499.855469 207.726562 C 499.148438 209.589844 498.089844 211.222656 496.683594 212.628906 C 495.261719 214.011719 494.082031 215.582031 493.140625 217.332031 C 492.203125 219.082031 491.546875 220.9375 491.175781 222.890625 C 490.742188 224.925781 490.570312 227.011719 490.285156 229.074219 C 490.234375 229.410156 490.234375 229.734375 490.203125 230.089844 L 483.28125 230.089844 C 483.257812 229.675781 483.238281 229.257812 483.21875 228.871094 C 483.21875 228.839844 483.199219 228.808594 483.199219 228.78125 C 483.199219 228.75 483.207031 228.730469 483.207031 228.699219 C 483.066406 225.992188 482.964844 223.96875 482.964844 222.933594 C 482.988281 222.449219 482.863281 222.003906 482.601562 221.597656 C 482.253906 221.167969 481.8125 220.886719 481.273438 220.753906 C 479.78125 220.257812 478.347656 219.628906 476.972656 218.863281 C 475.464844 218.058594 475.199219 218.019531 473.933594 219.1875 C 473.335938 219.738281 472.71875 220.257812 472.171875 220.726562 C 471.980469 220.886719 471.789062 221.050781 471.617188 221.203125 L 469.214844 219.097656 C 469.46875 218.792969 469.722656 218.496094 469.964844 218.210938 C 470.601562 217.460938 471.210938 216.75 471.847656 216.054688 C 472.136719 215.746094 472.296875 215.382812 472.335938 214.960938 C 472.375 214.542969 472.277344 214.152344 472.050781 213.796875 C 471.394531 212.324219 470.765625 210.746094 470.136719 208.976562 C 470.050781 208.582031 469.851562 208.257812 469.539062 208 C 469.226562 207.742188 468.871094 207.609375 468.464844 207.605469 C 467.179688 207.523438 466.097656 207.441406 465.015625 207.300781 C 464.75 207.269531 464.355469 206.984375 464.347656 206.863281 C 464.289062 206.164062 464.269531 205.464844 464.296875 204.765625 C 464.304688 204.542969 464.304688 204.320312 464.304688 204.097656 L 465.550781 203.972656 C 466.574219 203.863281 467.546875 203.769531 468.507812 203.699219 C 468.90625 203.6875 469.261719 203.554688 469.566406 203.296875 C 469.875 203.035156 470.066406 202.710938 470.148438 202.316406 C 470.773438 200.546875 471.382812 199 472.019531 197.597656 C 472.242188 197.238281 472.335938 196.851562 472.296875 196.433594 C 472.257812 196.011719 472.09375 195.648438 471.808594 195.339844 C 471.171875 194.605469 470.550781 193.84375 469.964844 193.113281 C 469.730469 192.835938 469.507812 192.5625 469.285156 192.296875 L 471.515625 190.050781 C 471.777344 190.265625 472.050781 190.488281 472.3125 190.710938 C 473.011719 191.28125 473.722656 191.871094 474.410156 192.480469 C 474.5625 192.632812 474.738281 192.75 474.933594 192.839844 C 475.132812 192.925781 475.335938 192.976562 475.550781 192.992188 C 475.765625 193.003906 475.976562 192.980469 476.183594 192.921875 C 476.386719 192.859375 476.578125 192.761719 476.75 192.632812 C 478.273438 191.832031 479.84375 191.125 481.457031 190.519531 C 481.886719 190.421875 482.242188 190.203125 482.519531 189.859375 C 482.800781 189.515625 482.941406 189.121094 482.945312 188.675781 C 482.984375 187.824219 483.078125 186.957031 483.15625 186.113281 L 483.25 185.109375 L 483.257812 185.097656 C 494.347656 185.394531 504.21875 197.039062 499.855469 207.726562 Z M 483.179688 214.328125 C 483.15625 214.214844 483.148438 214.105469 483.148438 213.992188 L 483.148438 197.039062 C 483.023438 197.007812 482.90625 196.964844 482.792969 196.90625 C 482.296875 197.015625 481.8125 197.164062 481.34375 197.355469 C 480.871094 197.550781 480.421875 197.78125 479.992188 198.050781 C 479.558594 198.320312 479.15625 198.625 478.773438 198.964844 C 478.394531 199.300781 478.046875 199.671875 477.730469 200.070312 C 477.414062 200.46875 477.136719 200.894531 476.890625 201.339844 C 476.648438 201.789062 476.441406 202.253906 476.277344 202.734375 C 476.113281 203.21875 475.988281 203.710938 475.910156 204.214844 C 475.828125 204.71875 475.789062 205.226562 475.796875 205.734375 C 475.800781 206.246094 475.851562 206.753906 475.941406 207.253906 C 476.035156 207.753906 476.167969 208.246094 476.34375 208.726562 C 476.519531 209.203125 476.734375 209.664062 476.988281 210.105469 C 477.242188 210.546875 477.53125 210.964844 477.855469 211.355469 C 478.179688 211.75 478.535156 212.109375 478.921875 212.441406 C 479.308594 212.773438 479.722656 213.066406 480.160156 213.328125 C 480.597656 213.585938 481.050781 213.808594 481.527344 213.988281 C 482 214.171875 482.488281 214.3125 482.984375 214.410156 C 483.027344 214.398438 483.058594 214.367188 483.097656 214.359375 C 483.125 214.347656 483.152344 214.339844 483.179688 214.328125 Z M 483.179688 214.328125 " fill-opacity="1" fill-rule="nonzero"/></g><path fill="#000000" d="M 505.707031 357.59375 C 505.707031 358.058594 505.660156 358.519531 505.570312 358.972656 C 505.480469 359.425781 505.347656 359.867188 505.167969 360.296875 C 504.992188 360.726562 504.773438 361.132812 504.515625 361.515625 C 504.257812 361.902344 503.964844 362.257812 503.636719 362.585938 C 503.3125 362.914062 502.953125 363.207031 502.570312 363.464844 C 502.183594 363.722656 501.777344 363.941406 501.347656 364.117188 C 500.917969 364.296875 500.476562 364.429688 500.023438 364.519531 C 499.570312 364.609375 499.109375 364.65625 498.644531 364.65625 C 498.183594 364.65625 497.722656 364.609375 497.269531 364.519531 C 496.8125 364.429688 496.371094 364.296875 495.945312 364.117188 C 495.515625 363.941406 495.109375 363.722656 494.722656 363.464844 C 494.339844 363.207031 493.980469 362.914062 493.652344 362.585938 C 493.324219 362.257812 493.03125 361.902344 492.777344 361.515625 C 492.519531 361.132812 492.300781 360.726562 492.125 360.296875 C 491.945312 359.867188 491.8125 359.425781 491.722656 358.972656 C 491.632812 358.519531 491.585938 358.058594 491.585938 357.59375 C 491.585938 357.132812 491.632812 356.671875 491.722656 356.21875 C 491.8125 355.761719 491.945312 355.320312 492.125 354.894531 C 492.300781 354.464844 492.519531 354.058594 492.777344 353.671875 C 493.03125 353.285156 493.324219 352.929688 493.652344 352.601562 C 493.980469 352.273438 494.339844 351.980469 494.722656 351.722656 C 495.109375 351.46875 495.515625 351.25 495.945312 351.070312 C 496.371094 350.894531 496.8125 350.761719 497.269531 350.671875 C 497.722656 350.578125 498.183594 350.535156 498.644531 350.535156 C 499.109375 350.535156 499.570312 350.578125 500.023438 350.671875 C 500.476562 350.761719 500.917969 350.894531 501.347656 351.070312 C 501.777344 351.25 502.183594 351.46875 502.570312 351.722656 C 502.953125 351.980469 503.3125 352.273438 503.636719 352.601562 C 503.964844 352.929688 504.257812 353.285156 504.515625 353.671875 C 504.773438 354.058594 504.992188 354.464844 505.167969 354.894531 C 505.347656 355.320312 505.480469 355.761719 505.570312 356.21875 C 505.660156 356.671875 505.707031 357.132812 505.707031 357.59375 Z M 505.707031 357.59375 " fill-opacity="1" fill-rule="nonzero"/><path fill="#000000" d="M 488.433594 403.875 L 488.054688 401.699219 C 488.015625 401.464844 487.917969 401.261719 487.753906 401.089844 C 487.59375 400.917969 487.398438 400.804688 487.167969 400.75 C 486.941406 400.695312 486.714844 400.707031 486.492188 400.785156 C 486.269531 400.867188 486.089844 401.003906 485.949219 401.191406 L 483.476562 404.664062 C 483.386719 404.789062 483.324219 404.929688 483.289062 405.078125 C 483.253906 405.230469 483.246094 405.382812 483.269531 405.535156 C 483.296875 405.6875 483.347656 405.832031 483.429688 405.964844 C 483.507812 406.097656 483.613281 406.207031 483.738281 406.300781 L 487.171875 408.792969 C 487.367188 408.941406 487.589844 409.019531 487.832031 409.027344 C 488.078125 409.039062 488.300781 408.976562 488.507812 408.847656 C 488.714844 408.714844 488.867188 408.539062 488.960938 408.3125 C 489.058594 408.089844 489.082031 407.855469 489.03125 407.617188 L 488.808594 406.21875 C 490.0625 405.914062 491.289062 405.527344 492.488281 405.054688 C 493.6875 404.582031 494.851562 404.03125 495.976562 403.402344 C 497.101562 402.769531 498.175781 402.066406 499.207031 401.289062 C 500.234375 400.511719 501.203125 399.667969 502.117188 398.753906 C 503.03125 397.84375 503.875 396.875 504.65625 395.847656 C 505.433594 394.820312 506.140625 393.746094 506.773438 392.621094 C 507.40625 391.5 507.960938 390.335938 508.433594 389.136719 C 508.90625 387.9375 509.296875 386.710938 509.601562 385.460938 L 511.355469 385.8125 C 511.585938 385.851562 511.804688 385.820312 512.019531 385.726562 C 512.230469 385.632812 512.402344 385.488281 512.527344 385.296875 C 512.65625 385.101562 512.71875 384.886719 512.71875 384.652344 C 512.71875 384.421875 512.65625 384.207031 512.53125 384.011719 L 510.179688 380.480469 C 510.089844 380.351562 509.984375 380.246094 509.855469 380.160156 C 509.726562 380.074219 509.585938 380.015625 509.433594 379.984375 C 509.28125 379.953125 509.128906 379.953125 508.976562 379.980469 C 508.824219 380.011719 508.683594 380.066406 508.554688 380.152344 L 505.023438 382.507812 C 504.816406 382.636719 504.667969 382.816406 504.574219 383.039062 C 504.476562 383.265625 504.457031 383.496094 504.503906 383.738281 C 504.554688 383.976562 504.667969 384.179688 504.84375 384.347656 C 505.019531 384.515625 505.230469 384.621094 505.472656 384.660156 L 507.296875 385.023438 C 507.011719 386.160156 506.652344 387.269531 506.21875 388.355469 C 505.785156 389.441406 505.28125 390.492188 504.707031 391.507812 C 504.128906 392.527344 503.488281 393.5 502.78125 394.429688 C 502.070312 395.359375 501.304688 396.238281 500.476562 397.066406 C 499.652344 397.890625 498.773438 398.660156 497.839844 399.367188 C 496.910156 400.074219 495.9375 400.714844 494.917969 401.289062 C 493.902344 401.867188 492.847656 402.371094 491.761719 402.800781 C 490.675781 403.234375 489.566406 403.59375 488.433594 403.875 Z M 488.433594 403.875 " fill-opacity="1" fill-rule="nonzero"/><g clip-path="url(#d26b0b3838)"><path fill="#000000" d="M 498.644531 344.652344 C 498.066406 344.652344 497.492188 344.679688 496.917969 344.734375 C 496.339844 344.792969 495.769531 344.878906 495.203125 344.988281 C 494.636719 345.101562 494.074219 345.242188 493.523438 345.410156 C 492.96875 345.578125 492.425781 345.773438 491.890625 345.996094 C 491.355469 346.214844 490.835938 346.460938 490.324219 346.734375 C 489.816406 347.007812 489.320312 347.304688 488.839844 347.625 C 488.359375 347.945312 487.894531 348.289062 487.449219 348.65625 C 487 349.023438 486.574219 349.410156 486.164062 349.820312 C 485.757812 350.230469 485.367188 350.65625 485 351.105469 C 484.636719 351.550781 484.292969 352.015625 483.96875 352.496094 C 483.648438 352.976562 483.351562 353.472656 483.078125 353.980469 C 482.808594 354.492188 482.558594 355.011719 482.339844 355.546875 C 482.117188 356.082031 481.921875 356.625 481.753906 357.179688 C 481.585938 357.730469 481.445312 358.292969 481.335938 358.859375 C 481.222656 359.425781 481.136719 359.996094 481.082031 360.570312 C 481.023438 361.148438 480.996094 361.722656 480.996094 362.300781 C 480.996094 362.878906 481.023438 363.457031 481.082031 364.03125 C 481.136719 364.605469 481.222656 365.179688 481.335938 365.746094 C 481.445312 366.3125 481.585938 366.871094 481.753906 367.425781 C 481.921875 367.980469 482.117188 368.523438 482.339844 369.054688 C 482.558594 369.589844 482.808594 370.113281 483.078125 370.621094 C 483.351562 371.132812 483.648438 371.628906 483.96875 372.109375 C 484.292969 372.589844 484.636719 373.050781 485 373.5 C 485.367188 373.945312 485.757812 374.375 486.164062 374.78125 C 486.574219 375.191406 487 375.578125 487.449219 375.945312 C 487.894531 376.3125 488.359375 376.65625 488.839844 376.976562 C 489.320312 377.300781 489.816406 377.597656 490.324219 377.867188 C 490.835938 378.140625 491.355469 378.386719 491.890625 378.609375 C 492.425781 378.832031 492.96875 379.023438 493.523438 379.191406 C 494.074219 379.359375 494.636719 379.5 495.203125 379.613281 C 495.769531 379.726562 496.339844 379.8125 496.917969 379.867188 C 497.492188 379.925781 498.066406 379.953125 498.644531 379.953125 C 499.222656 379.953125 499.800781 379.925781 500.375 379.867188 C 500.953125 379.8125 501.523438 379.726562 502.089844 379.613281 C 502.65625 379.5 503.214844 379.359375 503.769531 379.191406 C 504.324219 379.023438 504.867188 378.832031 505.402344 378.609375 C 505.933594 378.386719 506.457031 378.140625 506.964844 377.867188 C 507.476562 377.597656 507.972656 377.300781 508.453125 376.976562 C 508.933594 376.65625 509.398438 376.3125 509.84375 375.945312 C 510.289062 375.578125 510.71875 375.191406 511.128906 374.78125 C 511.535156 374.375 511.921875 373.945312 512.289062 373.5 C 512.65625 373.050781 513 372.589844 513.320312 372.109375 C 513.644531 371.628906 513.941406 371.132812 514.210938 370.621094 C 514.484375 370.113281 514.730469 369.589844 514.953125 369.054688 C 515.175781 368.523438 515.367188 367.980469 515.535156 367.425781 C 515.703125 366.871094 515.84375 366.3125 515.957031 365.746094 C 516.070312 365.179688 516.15625 364.605469 516.210938 364.03125 C 516.269531 363.457031 516.296875 362.878906 516.296875 362.300781 C 516.296875 361.722656 516.269531 361.148438 516.210938 360.570312 C 516.15625 359.996094 516.070312 359.425781 515.957031 358.859375 C 515.84375 358.292969 515.703125 357.730469 515.535156 357.179688 C 515.367188 356.625 515.175781 356.082031 514.953125 355.546875 C 514.730469 355.011719 514.484375 354.492188 514.210938 353.980469 C 513.941406 353.472656 513.644531 352.976562 513.324219 352.496094 C 513 352.015625 512.65625 351.550781 512.289062 351.105469 C 511.921875 350.65625 511.535156 350.230469 511.128906 349.820312 C 510.71875 349.410156 510.289062 349.023438 509.84375 348.65625 C 509.398438 348.289062 508.933594 347.945312 508.453125 347.625 C 507.972656 347.304688 507.476562 347.007812 506.964844 346.734375 C 506.457031 346.460938 505.933594 346.214844 505.402344 345.996094 C 504.867188 345.773438 504.324219 345.578125 503.769531 345.410156 C 503.214844 345.242188 502.65625 345.101562 502.089844 344.988281 C 501.523438 344.878906 500.953125 344.792969 500.375 344.734375 C 499.800781 344.679688 499.222656 344.652344 498.644531 344.652344 Z M 508.859375 373.65625 C 508.707031 373.101562 508.511719 372.5625 508.269531 372.039062 C 508.03125 371.515625 507.75 371.011719 507.425781 370.535156 C 507.105469 370.058594 506.746094 369.609375 506.351562 369.1875 C 505.953125 368.769531 505.527344 368.386719 505.070312 368.035156 C 504.609375 367.6875 504.128906 367.375 503.617188 367.105469 C 503.109375 366.835938 502.582031 366.605469 502.035156 366.421875 C 501.488281 366.238281 500.933594 366.097656 500.363281 366.007812 C 499.796875 365.914062 499.222656 365.867188 498.644531 365.867188 C 498.070312 365.867188 497.496094 365.914062 496.929688 366.007812 C 496.359375 366.097656 495.800781 366.238281 495.257812 366.421875 C 494.710938 366.605469 494.183594 366.835938 493.671875 367.105469 C 493.164062 367.375 492.679688 367.6875 492.222656 368.035156 C 491.765625 368.386719 491.335938 368.769531 490.941406 369.1875 C 490.546875 369.609375 490.1875 370.058594 489.867188 370.535156 C 489.542969 371.011719 489.261719 371.515625 489.019531 372.039062 C 488.78125 372.5625 488.585938 373.101562 488.433594 373.65625 C 488.050781 373.316406 487.6875 372.953125 487.339844 372.574219 C 486.996094 372.195312 486.671875 371.800781 486.367188 371.390625 C 486.058594 370.980469 485.777344 370.554688 485.511719 370.113281 C 485.25 369.671875 485.007812 369.222656 484.792969 368.757812 C 484.574219 368.292969 484.382812 367.820312 484.210938 367.335938 C 484.042969 366.851562 483.898438 366.359375 483.777344 365.863281 C 483.65625 365.363281 483.5625 364.859375 483.492188 364.351562 C 483.421875 363.84375 483.378906 363.335938 483.359375 362.824219 C 483.339844 362.3125 483.347656 361.796875 483.378906 361.289062 C 483.414062 360.777344 483.472656 360.265625 483.554688 359.761719 C 483.640625 359.253906 483.75 358.753906 483.882812 358.261719 C 484.015625 357.765625 484.175781 357.28125 484.359375 356.800781 C 484.542969 356.320312 484.75 355.855469 484.980469 355.394531 C 485.210938 354.9375 485.460938 354.492188 485.738281 354.058594 C 486.011719 353.628906 486.308594 353.210938 486.625 352.808594 C 486.941406 352.40625 487.28125 352.019531 487.636719 351.648438 C 487.992188 351.28125 488.363281 350.929688 488.753906 350.597656 C 489.148438 350.269531 489.554688 349.957031 489.976562 349.667969 C 490.398438 349.375 490.832031 349.105469 491.28125 348.859375 C 491.730469 348.613281 492.191406 348.390625 492.664062 348.191406 C 493.136719 347.988281 493.617188 347.8125 494.105469 347.660156 C 494.597656 347.507812 495.089844 347.382812 495.59375 347.28125 C 496.097656 347.175781 496.601562 347.101562 497.113281 347.050781 C 497.621094 346.996094 498.132812 346.972656 498.644531 346.972656 C 499.160156 346.972656 499.671875 346.996094 500.179688 347.050781 C 500.691406 347.101562 501.195312 347.175781 501.699219 347.28125 C 502.199219 347.382812 502.695312 347.507812 503.1875 347.660156 C 503.675781 347.8125 504.15625 347.988281 504.628906 348.191406 C 505.097656 348.390625 505.558594 348.613281 506.007812 348.859375 C 506.457031 349.105469 506.894531 349.375 507.316406 349.667969 C 507.738281 349.957031 508.144531 350.269531 508.535156 350.597656 C 508.929688 350.929688 509.300781 351.28125 509.65625 351.648438 C 510.011719 352.019531 510.347656 352.40625 510.667969 352.808594 C 510.984375 353.210938 511.28125 353.628906 511.554688 354.058594 C 511.828125 354.492188 512.082031 354.9375 512.3125 355.394531 C 512.542969 355.855469 512.75 356.324219 512.933594 356.800781 C 513.117188 357.28125 513.273438 357.765625 513.410156 358.261719 C 513.542969 358.753906 513.652344 359.253906 513.738281 359.761719 C 513.820312 360.265625 513.878906 360.777344 513.910156 361.289062 C 513.945312 361.796875 513.953125 362.3125 513.933594 362.824219 C 513.914062 363.335938 513.871094 363.84375 513.800781 364.351562 C 513.730469 364.859375 513.636719 365.363281 513.515625 365.863281 C 513.394531 366.359375 513.25 366.851562 513.082031 367.335938 C 512.910156 367.820312 512.71875 368.292969 512.5 368.757812 C 512.28125 369.222656 512.042969 369.671875 511.78125 370.113281 C 511.515625 370.554688 511.234375 370.980469 510.925781 371.390625 C 510.621094 371.800781 510.296875 372.195312 509.949219 372.574219 C 509.605469 372.953125 509.242188 373.316406 508.859375 373.65625 Z M 508.859375 373.65625 " fill-opacity="1" fill-rule="nonzero"/></g><path fill="#000000" d="M 472.757812 390.542969 C 472.757812 391.007812 472.714844 391.464844 472.621094 391.921875 C 472.53125 392.375 472.398438 392.816406 472.222656 393.246094 C 472.042969 393.671875 471.824219 394.082031 471.566406 394.464844 C 471.3125 394.851562 471.019531 395.207031 470.691406 395.535156 C 470.363281 395.863281 470.003906 396.15625 469.621094 396.414062 C 469.234375 396.671875 468.828125 396.890625 468.398438 397.066406 C 467.972656 397.242188 467.53125 397.378906 467.074219 397.46875 C 466.621094 397.558594 466.160156 397.605469 465.699219 397.605469 C 465.234375 397.605469 464.773438 397.558594 464.320312 397.46875 C 463.867188 397.378906 463.425781 397.242188 462.996094 397.066406 C 462.566406 396.890625 462.160156 396.671875 461.773438 396.414062 C 461.390625 396.15625 461.035156 395.863281 460.707031 395.535156 C 460.378906 395.207031 460.085938 394.851562 459.828125 394.464844 C 459.570312 394.082031 459.351562 393.671875 459.175781 393.246094 C 458.996094 392.816406 458.863281 392.375 458.773438 391.921875 C 458.683594 391.464844 458.636719 391.007812 458.636719 390.542969 C 458.636719 390.078125 458.683594 389.621094 458.773438 389.164062 C 458.863281 388.710938 458.996094 388.269531 459.175781 387.839844 C 459.351562 387.414062 459.570312 387.007812 459.828125 386.621094 C 460.085938 386.234375 460.378906 385.878906 460.707031 385.550781 C 461.035156 385.222656 461.390625 384.929688 461.773438 384.671875 C 462.160156 384.414062 462.566406 384.199219 462.996094 384.019531 C 463.425781 383.84375 463.867188 383.707031 464.320312 383.617188 C 464.773438 383.527344 465.234375 383.484375 465.699219 383.484375 C 466.160156 383.484375 466.621094 383.527344 467.074219 383.617188 C 467.53125 383.707031 467.972656 383.84375 468.398438 384.019531 C 468.828125 384.199219 469.234375 384.414062 469.621094 384.671875 C 470.003906 384.929688 470.363281 385.222656 470.691406 385.550781 C 471.019531 385.878906 471.3125 386.234375 471.566406 386.621094 C 471.824219 387.007812 472.042969 387.414062 472.222656 387.839844 C 472.398438 388.269531 472.53125 388.710938 472.621094 389.164062 C 472.714844 389.621094 472.757812 390.078125 472.757812 390.542969 Z M 472.757812 390.542969 " fill-opacity="1" fill-rule="nonzero"/><path fill="#000000" d="M 454.128906 377.070312 C 454.21875 377.199219 454.324219 377.304688 454.453125 377.394531 C 454.582031 377.480469 454.722656 377.539062 454.875 377.570312 C 455.027344 377.597656 455.179688 377.601562 455.332031 377.570312 C 455.484375 377.542969 455.625 377.484375 455.753906 377.398438 L 459.285156 375.046875 C 459.488281 374.917969 459.640625 374.742188 459.738281 374.519531 C 459.835938 374.296875 459.859375 374.066406 459.8125 373.828125 C 459.769531 373.589844 459.660156 373.386719 459.488281 373.214844 C 459.316406 373.042969 459.109375 372.9375 458.871094 372.890625 L 457.050781 372.527344 C 457.332031 371.394531 457.691406 370.289062 458.125 369.203125 C 458.558594 368.121094 459.0625 367.070312 459.636719 366.054688 C 460.210938 365.039062 460.851562 364.066406 461.558594 363.140625 C 462.265625 362.210938 463.03125 361.332031 463.855469 360.507812 C 464.683594 359.683594 465.558594 358.917969 466.488281 358.210938 C 467.417969 357.503906 468.386719 356.863281 469.402344 356.289062 C 470.417969 355.710938 471.46875 355.207031 472.554688 354.773438 C 473.636719 354.339844 474.746094 353.984375 475.875 353.699219 L 476.230469 355.875 C 476.269531 356.109375 476.367188 356.3125 476.53125 356.484375 C 476.691406 356.65625 476.886719 356.773438 477.117188 356.828125 C 477.34375 356.882812 477.570312 356.871094 477.792969 356.789062 C 478.015625 356.707031 478.195312 356.574219 478.335938 356.382812 L 480.867188 352.886719 C 480.957031 352.761719 481.019531 352.625 481.054688 352.472656 C 481.089844 352.320312 481.097656 352.171875 481.074219 352.015625 C 481.046875 351.863281 480.996094 351.722656 480.914062 351.589844 C 480.835938 351.457031 480.730469 351.34375 480.605469 351.253906 L 477.171875 348.792969 C 476.976562 348.644531 476.753906 348.566406 476.511719 348.558594 C 476.265625 348.546875 476.042969 348.609375 475.835938 348.738281 C 475.628906 348.871094 475.476562 349.046875 475.382812 349.273438 C 475.285156 349.5 475.261719 349.730469 475.3125 349.96875 L 475.535156 351.371094 C 474.28125 351.671875 473.058594 352.058594 471.859375 352.53125 C 470.660156 353 469.496094 353.550781 468.375 354.179688 C 467.25 354.808594 466.171875 355.511719 465.144531 356.289062 C 464.117188 357.066406 463.148438 357.90625 462.234375 358.816406 C 461.324219 359.726562 460.476562 360.695312 459.695312 361.71875 C 458.914062 362.746094 458.210938 363.816406 457.574219 364.941406 C 456.941406 366.0625 456.390625 367.222656 455.914062 368.417969 C 455.441406 369.617188 455.050781 370.839844 454.742188 372.09375 L 452.988281 371.714844 C 452.757812 371.679688 452.539062 371.707031 452.324219 371.800781 C 452.113281 371.894531 451.941406 372.039062 451.816406 372.234375 C 451.6875 372.429688 451.625 372.640625 451.625 372.875 C 451.625 373.105469 451.6875 373.320312 451.8125 373.515625 Z M 454.128906 377.070312 " fill-opacity="1" fill-rule="nonzero"/><g clip-path="url(#44a8f685bd)"><path fill="#000000" d="M 465.699219 412.902344 C 466.277344 412.902344 466.851562 412.871094 467.429688 412.816406 C 468.003906 412.757812 468.574219 412.675781 469.140625 412.5625 C 469.707031 412.449219 470.269531 412.308594 470.820312 412.140625 C 471.375 411.972656 471.917969 411.777344 472.453125 411.558594 C 472.988281 411.335938 473.507812 411.089844 474.019531 410.816406 C 474.527344 410.542969 475.023438 410.246094 475.503906 409.925781 C 475.984375 409.605469 476.449219 409.261719 476.894531 408.894531 C 477.34375 408.527344 477.769531 408.140625 478.179688 407.730469 C 478.585938 407.324219 478.976562 406.894531 479.34375 406.449219 C 479.707031 406 480.054688 405.535156 480.375 405.054688 C 480.695312 404.574219 480.992188 404.082031 481.265625 403.570312 C 481.535156 403.0625 481.785156 402.539062 482.003906 402.003906 C 482.226562 401.472656 482.421875 400.925781 482.589844 400.375 C 482.757812 399.820312 482.898438 399.261719 483.007812 398.695312 C 483.121094 398.125 483.207031 397.554688 483.265625 396.980469 C 483.320312 396.40625 483.347656 395.828125 483.347656 395.25 C 483.347656 394.671875 483.320312 394.09375 483.265625 393.519531 C 483.207031 392.945312 483.121094 392.375 483.007812 391.804688 C 482.898438 391.238281 482.757812 390.679688 482.589844 390.125 C 482.421875 389.574219 482.226562 389.03125 482.003906 388.496094 C 481.785156 387.960938 481.535156 387.4375 481.265625 386.929688 C 480.992188 386.417969 480.695312 385.925781 480.375 385.445312 C 480.054688 384.964844 479.707031 384.5 479.34375 384.050781 C 478.976562 383.605469 478.585938 383.179688 478.179688 382.769531 C 477.769531 382.359375 477.34375 381.972656 476.894531 381.605469 C 476.449219 381.238281 475.984375 380.894531 475.503906 380.574219 C 475.023438 380.253906 474.527344 379.957031 474.019531 379.683594 C 473.507812 379.410156 472.988281 379.164062 472.453125 378.941406 C 471.917969 378.722656 471.375 378.527344 470.820312 378.359375 C 470.269531 378.191406 469.707031 378.050781 469.140625 377.9375 C 468.574219 377.824219 468.003906 377.742188 467.429688 377.683594 C 466.851562 377.628906 466.277344 377.597656 465.699219 377.597656 C 465.121094 377.597656 464.542969 377.628906 463.96875 377.683594 C 463.390625 377.742188 462.820312 377.824219 462.253906 377.9375 C 461.6875 378.050781 461.128906 378.191406 460.574219 378.359375 C 460.019531 378.527344 459.476562 378.722656 458.941406 378.941406 C 458.410156 379.164062 457.886719 379.410156 457.378906 379.683594 C 456.867188 379.957031 456.371094 380.253906 455.890625 380.574219 C 455.410156 380.894531 454.945312 381.238281 454.5 381.605469 C 454.054688 381.972656 453.625 382.359375 453.214844 382.769531 C 452.808594 383.179688 452.421875 383.605469 452.054688 384.050781 C 451.6875 384.5 451.34375 384.964844 451.023438 385.445312 C 450.699219 385.925781 450.402344 386.417969 450.132812 386.929688 C 449.859375 387.4375 449.613281 387.960938 449.390625 388.496094 C 449.167969 389.03125 448.976562 389.574219 448.808594 390.125 C 448.640625 390.679688 448.5 391.238281 448.386719 391.804688 C 448.273438 392.375 448.1875 392.945312 448.132812 393.519531 C 448.074219 394.09375 448.046875 394.671875 448.046875 395.25 C 448.046875 395.828125 448.074219 396.40625 448.132812 396.980469 C 448.1875 397.554688 448.273438 398.125 448.386719 398.695312 C 448.5 399.261719 448.640625 399.820312 448.808594 400.375 C 448.976562 400.925781 449.167969 401.472656 449.390625 402.003906 C 449.613281 402.539062 449.859375 403.0625 450.132812 403.570312 C 450.402344 404.082031 450.699219 404.574219 451.023438 405.054688 C 451.34375 405.535156 451.6875 406 452.054688 406.449219 C 452.421875 406.894531 452.808594 407.324219 453.214844 407.730469 C 453.625 408.140625 454.054688 408.527344 454.5 408.894531 C 454.945312 409.261719 455.410156 409.605469 455.890625 409.925781 C 456.371094 410.246094 456.867188 410.542969 457.378906 410.816406 C 457.886719 411.089844 458.410156 411.335938 458.941406 411.558594 C 459.476562 411.777344 460.019531 411.972656 460.574219 412.140625 C 461.128906 412.308594 461.6875 412.449219 462.253906 412.5625 C 462.820312 412.675781 463.390625 412.757812 463.96875 412.816406 C 464.542969 412.871094 465.121094 412.902344 465.699219 412.902344 Z M 465.699219 379.953125 C 466.464844 379.953125 467.230469 380.015625 467.988281 380.128906 C 468.746094 380.246094 469.492188 380.421875 470.226562 380.648438 C 470.957031 380.878906 471.671875 381.160156 472.359375 381.496094 C 473.050781 381.832031 473.710938 382.21875 474.34375 382.65625 C 474.976562 383.089844 475.574219 383.574219 476.132812 384.097656 C 476.691406 384.625 477.210938 385.1875 477.683594 385.792969 C 478.160156 386.394531 478.585938 387.03125 478.964844 387.699219 C 479.34375 388.367188 479.671875 389.058594 479.945312 389.777344 C 480.222656 390.492188 480.441406 391.226562 480.605469 391.976562 C 480.769531 392.726562 480.875 393.484375 480.925781 394.25 C 480.976562 395.015625 480.96875 395.78125 480.902344 396.546875 C 480.839844 397.3125 480.714844 398.070312 480.539062 398.816406 C 480.359375 399.5625 480.125 400.292969 479.835938 401.003906 C 479.546875 401.714844 479.207031 402.402344 478.816406 403.0625 C 478.421875 403.722656 477.984375 404.347656 477.496094 404.941406 C 477.011719 405.535156 476.480469 406.089844 475.910156 406.605469 C 475.757812 406.050781 475.5625 405.507812 475.324219 404.984375 C 475.082031 404.460938 474.800781 403.960938 474.476562 403.484375 C 474.15625 403.003906 473.796875 402.558594 473.402344 402.136719 C 473.007812 401.71875 472.578125 401.332031 472.121094 400.984375 C 471.664062 400.632812 471.179688 400.324219 470.671875 400.054688 C 470.160156 399.785156 469.632812 399.554688 469.085938 399.371094 C 468.542969 399.1875 467.984375 399.046875 467.414062 398.953125 C 466.847656 398.859375 466.273438 398.8125 465.699219 398.8125 C 465.121094 398.8125 464.550781 398.859375 463.980469 398.953125 C 463.410156 399.046875 462.855469 399.1875 462.308594 399.371094 C 461.761719 399.554688 461.234375 399.785156 460.726562 400.054688 C 460.214844 400.324219 459.734375 400.632812 459.273438 400.984375 C 458.816406 401.332031 458.390625 401.71875 457.992188 402.136719 C 457.597656 402.558594 457.238281 403.003906 456.917969 403.484375 C 456.59375 403.960938 456.3125 404.460938 456.074219 404.984375 C 455.832031 405.507812 455.636719 406.050781 455.484375 406.605469 C 454.914062 406.089844 454.386719 405.535156 453.898438 404.941406 C 453.414062 404.347656 452.972656 403.722656 452.582031 403.0625 C 452.1875 402.402344 451.847656 401.714844 451.558594 401.003906 C 451.269531 400.292969 451.035156 399.5625 450.859375 398.816406 C 450.679688 398.070312 450.558594 397.3125 450.492188 396.546875 C 450.425781 395.78125 450.417969 395.015625 450.46875 394.25 C 450.519531 393.484375 450.625 392.726562 450.789062 391.976562 C 450.957031 391.226562 451.175781 390.492188 451.449219 389.777344 C 451.722656 389.058594 452.050781 388.367188 452.429688 387.699219 C 452.808594 387.03125 453.234375 386.394531 453.710938 385.792969 C 454.1875 385.1875 454.703125 384.625 455.261719 384.097656 C 455.824219 383.574219 456.417969 383.089844 457.050781 382.65625 C 457.683594 382.21875 458.34375 381.832031 459.035156 381.496094 C 459.726562 381.160156 460.4375 380.878906 461.167969 380.648438 C 461.902344 380.421875 462.648438 380.246094 463.40625 380.128906 C 464.167969 380.015625 464.929688 379.953125 465.699219 379.953125 Z M 465.699219 379.953125 " fill-opacity="1" fill-rule="nonzero"/></g><g clip-path="url(#13c37ac6e1)"><path fill="#000000" d="M 292.253906 409.128906 L 277.5625 409.128906 L 277.5625 389.097656 C 278.128906 389.28125 278.703125 389.414062 279.277344 389.496094 L 279.277344 407 L 290.109375 407 Z M 304.203125 409.128906 L 316.367188 409.128906 L 316.367188 397.058594 L 314.648438 398.765625 L 314.648438 407 L 306.347656 407 Z M 316.367188 385.261719 L 316.367188 361.011719 L 277.5625 361.011719 L 277.5625 369.015625 C 278.121094 368.835938 278.695312 368.703125 279.277344 368.617188 L 279.277344 363.140625 L 314.648438 363.140625 L 314.648438 386.964844 Z M 307.085938 394.46875 L 284.78125 394.46875 C 284.023438 394.46875 283.429688 393.878906 283.429688 393.125 C 283.429688 392.371094 284.023438 391.78125 284.78125 391.78125 L 309.144531 391.78125 C 309.335938 391.78125 309.519531 391.820312 309.683594 391.890625 Z M 288.269531 399.839844 L 284.78125 399.839844 C 284.023438 399.839844 283.429688 399.25 283.429688 398.496094 C 283.429688 397.742188 284.023438 397.152344 284.78125 397.152344 L 304.378906 397.152344 L 301.671875 399.839844 L 294.785156 399.839844 L 293.089844 398.15625 C 292.226562 397.304688 290.820312 397.304688 289.960938 398.160156 Z M 289.535156 372.988281 L 309.144531 372.988281 C 309.902344 372.988281 310.496094 372.398438 310.496094 371.644531 C 310.496094 370.890625 309.902344 370.300781 309.144531 370.300781 L 286.773438 370.300781 C 287.878906 371.039062 288.808594 371.953125 289.535156 372.988281 Z M 291.445312 378.355469 L 309.144531 378.355469 C 309.902344 378.355469 310.496094 377.765625 310.496094 377.015625 C 310.496094 376.261719 309.902344 375.671875 309.144531 375.671875 L 290.90625 375.671875 C 291.199219 376.539062 291.382812 377.441406 291.445312 378.355469 Z M 290.371094 383.726562 L 309.144531 383.726562 C 309.902344 383.726562 310.496094 383.136719 310.496094 382.386719 C 310.496094 381.632812 309.902344 381.042969 309.144531 381.042969 L 291.28125 381.042969 C 291.105469 381.957031 290.804688 382.859375 290.371094 383.726562 Z M 288.460938 386.414062 L 309.144531 386.414062 C 309.902344 386.414062 310.496094 387.003906 310.496094 387.753906 C 310.496094 388.507812 309.902344 389.097656 309.144531 389.097656 L 284.78125 389.097656 C 284.621094 389.097656 284.464844 389.070312 284.320312 389.019531 C 285.863281 388.492188 287.289062 387.609375 288.460938 386.414062 Z M 272.8125 374.425781 C 275.390625 369.996094 281.125 368.472656 285.59375 371.03125 C 290.058594 373.589844 291.59375 379.277344 289.015625 383.707031 C 286.796875 387.523438 282.234375 389.183594 278.15625 387.933594 L 271.789062 398.875 C 271.214844 399.859375 269.941406 400.199219 268.945312 399.632812 C 267.949219 399.0625 267.609375 397.796875 268.183594 396.8125 L 274.550781 385.871094 C 271.421875 382.992188 270.589844 378.246094 272.8125 374.425781 Z M 277.847656 384.675781 C 280.78125 386.351562 284.539062 385.355469 286.230469 382.445312 C 287.921875 379.539062 286.914062 375.808594 283.984375 374.132812 C 281.054688 372.453125 277.292969 373.453125 275.605469 376.359375 C 273.910156 379.265625 274.917969 382.996094 277.847656 384.675781 Z M 322.367188 388.003906 C 322.664062 388.300781 322.664062 388.789062 322.367188 389.082031 L 298.769531 412.492188 C 298.476562 412.785156 297.984375 412.785156 297.6875 412.492188 L 288.164062 403.046875 C 287.867188 402.75 287.867188 402.265625 288.164062 401.96875 L 290.984375 399.171875 C 291.28125 398.875 291.769531 398.875 292.066406 399.171875 L 296.667969 403.730469 C 297.523438 404.585938 298.929688 404.585938 299.792969 403.730469 L 318.460938 385.207031 C 318.757812 384.914062 319.246094 384.914062 319.546875 385.210938 Z M 322.367188 388.003906 " fill-opacity="1" fill-rule="evenodd"/></g><g clip-path="url(#f1c9ff661f)"><path fill="#000000" d="M 299 194.6875 C 299.472656 194.871094 299.714844 195.402344 299.542969 195.875 C 299.363281 196.351562 298.828125 196.59375 298.355469 196.421875 L 295.886719 195.5 C 295.402344 195.320312 295.160156 194.785156 295.339844 194.3125 C 295.523438 193.828125 296.054688 193.585938 296.527344 193.765625 Z M 290.578125 179.359375 C 290.761719 178.875 291.292969 178.632812 291.765625 178.8125 C 292.238281 178.996094 292.480469 179.527344 292.3125 180.003906 L 291.390625 182.476562 C 291.210938 182.949219 290.675781 183.191406 290.203125 183.023438 C 289.71875 182.839844 289.476562 182.304688 289.660156 181.832031 Z M 297.230469 185.617188 C 297.691406 185.398438 298.246094 185.605469 298.453125 186.078125 C 298.660156 186.539062 298.464844 187.097656 297.992188 187.304688 L 295.59375 188.40625 C 295.121094 188.625 294.578125 188.417969 294.371094 187.945312 C 294.152344 187.484375 294.359375 186.925781 294.832031 186.71875 Z M 264.183594 178.921875 C 267.636719 177.527344 271.390625 177.054688 275.097656 177.566406 C 285.578125 178.984375 293.65625 187.980469 293.65625 198.859375 C 293.65625 199.371094 293.246094 199.78125 292.734375 199.78125 L 289.550781 199.78125 C 288.921875 199.78125 288.421875 199.164062 288.703125 198.472656 C 289.003906 197.730469 288.785156 196.75 288.191406 196.15625 C 286.8125 194.773438 284.4375 195.753906 284.4375 197.707031 C 284.4375 198 284.488281 198.242188 284.582031 198.507812 C 284.824219 199.113281 284.367188 199.769531 283.722656 199.769531 L 265.445312 199.769531 L 265.445312 204.136719 C 267.78125 203.976562 269.78125 205.832031 269.78125 208.1875 C 269.78125 210.539062 267.792969 212.394531 265.445312 212.238281 L 265.445312 217.925781 C 265.445312 218.554688 264.800781 219.0625 264.097656 218.75 C 260.125 217.136719 256.757812 214.359375 254.382812 210.855469 C 249.503906 203.613281 249.503906 194.09375 254.382812 186.84375 C 256.769531 183.3125 260.175781 180.535156 264.183594 178.921875 Z M 276.757812 179.746094 C 273.015625 178.851562 269.042969 179.09375 265.445312 180.414062 L 265.445312 197.925781 L 276.757812 197.925781 Z M 279.023438 180.4375 C 278.890625 180.390625 278.757812 180.339844 278.625 180.292969 L 278.625 197.925781 L 282.597656 197.925781 C 282.464844 195.621094 284.316406 193.65625 286.644531 193.65625 C 288.96875 193.65625 290.808594 195.621094 290.6875 197.925781 L 291.792969 197.925781 C 291.425781 190.019531 286.339844 183.15625 279.023438 180.4375 Z M 263.589844 197.914062 L 263.589844 181.203125 C 257.21875 184.332031 252.953125 190.710938 252.613281 197.914062 Z M 255.933594 209.8125 C 257.847656 212.660156 260.488281 214.964844 263.589844 216.492188 L 263.589844 211.074219 C 263.589844 210.429688 264.257812 209.96875 264.863281 210.222656 C 266.292969 210.816406 267.914062 209.773438 267.914062 208.1875 C 267.914062 206.792969 266.644531 205.761719 265.285156 206.027344 C 264.921875 206.101562 264.800781 206.222656 264.511719 206.222656 C 264.003906 206.222656 263.589844 205.808594 263.589844 205.300781 L 263.589844 199.78125 L 252.613281 199.78125 C 252.785156 203.492188 253.984375 206.925781 255.933594 209.8125 Z M 301.253906 207.167969 C 301.253906 212.976562 298.914062 218.457031 294.84375 222.472656 L 296.84375 230.269531 C 297.046875 231.09375 296.128906 231.738281 295.425781 231.265625 L 288.800781 226.667969 C 283.433594 229.167969 277.253906 229.3125 271.765625 227.105469 C 271.402344 226.960938 271.1875 226.609375 271.1875 226.242188 L 271.1875 219.390625 C 271.1875 218.761719 271.816406 218.25 272.519531 218.554688 C 273.269531 218.882812 274.273438 218.664062 274.878906 218.058594 C 276.261719 216.675781 275.28125 214.296875 273.328125 214.296875 C 273.039062 214.296875 272.734375 214.359375 272.480469 214.46875 C 271.863281 214.722656 271.199219 214.261719 271.199219 213.617188 L 271.199219 207.167969 C 271.199219 206.65625 271.609375 206.234375 272.117188 206.234375 L 290.191406 206.234375 C 290.058594 203.929688 291.914062 201.964844 294.238281 201.964844 C 296.5625 201.964844 298.417969 203.929688 298.285156 206.234375 L 300.332031 206.234375 C 300.839844 206.234375 301.253906 206.644531 301.253906 207.167969 Z M 297.789062 214.964844 C 298.707031 212.84375 299.265625 210.527344 299.375 208.089844 L 297.144531 208.089844 C 296.503906 208.089844 296.042969 207.433594 296.285156 206.828125 C 296.84375 205.410156 295.800781 203.820312 294.238281 203.820312 C 292.855469 203.820312 291.828125 205.082031 292.082031 206.425781 C 292.140625 206.753906 292.261719 206.875 292.261719 207.15625 C 292.261719 207.664062 291.851562 208.078125 291.34375 208.078125 L 273.039062 208.078125 L 273.039062 212.441406 C 275.378906 212.285156 277.363281 214.140625 277.363281 216.492188 C 277.363281 218.847656 275.378906 220.703125 273.039062 220.542969 L 273.039062 225.589844 C 278.066406 227.433594 283.6875 227.128906 288.484375 224.753906 C 288.773438 224.605469 289.125 224.617188 289.417969 224.8125 L 294.445312 228.292969 L 292.929688 222.375 C 292.84375 222.058594 292.941406 221.707031 293.195312 221.476562 C 295.132812 219.671875 296.710938 217.453125 297.789062 214.964844 Z M 297.789062 214.964844 " fill-opacity="1" fill-rule="nonzero"/></g><g fill="#000000" fill-opacity="1"><g transform="translate(333.187487, 289.75861)"><g><path d="M 0.71875 -12.078125 L 0.71875 -14.625 L 12.71875 -14.625 L 12.71875 -12.078125 L 8.25 -12.078125 L 8.25 0 L 5.1875 0 L 5.1875 -12.078125 Z M 0.71875 -12.078125 "/></g></g></g><g fill="#000000" fill-opacity="1"><g transform="translate(346.627062, 289.75861)"><g><path d="M 1.265625 0 L 1.265625 -14.625 L 4.359375 -14.625 L 4.359375 -8.59375 L 10.640625 -8.59375 L 10.640625 -14.625 L 13.71875 -14.625 L 13.71875 0 L 10.640625 0 L 10.640625 -6.046875 L 4.359375 -6.046875 L 4.359375 0 Z M 1.265625 0 "/></g></g></g><g fill="#000000" fill-opacity="1"><g transform="translate(361.630541, 289.75861)"><g><path d="M 1.265625 0 L 1.265625 -14.625 L 11.125 -14.625 L 11.125 -12.078125 L 4.359375 -12.078125 L 4.359375 -8.59375 L 10.625 -8.59375 L 10.625 -6.046875 L 4.359375 -6.046875 L 4.359375 -2.546875 L 11.15625 -2.546875 L 11.15625 0 Z M 1.265625 0 "/></g></g></g><g fill="#000000" fill-opacity="1"><g transform="translate(373.94896, 289.75861)"><g/></g></g><g fill="#000000" fill-opacity="1"><g transform="translate(378.612107, 289.75861)"><g><path d="M 3.90625 -14.625 L 7.453125 -3.515625 L 7.578125 -3.515625 L 11.125 -14.625 L 14.546875 -14.625 L 9.515625 0 L 5.53125 0 L 0.484375 -14.625 Z M 3.90625 -14.625 "/></g></g></g><g fill="#000000" fill-opacity="1"><g transform="translate(393.651291, 289.75861)"><g><path d="M 1.265625 0 L 1.265625 -14.625 L 11.125 -14.625 L 11.125 -12.078125 L 4.359375 -12.078125 L 4.359375 -8.59375 L 10.625 -8.59375 L 10.625 -6.046875 L 4.359375 -6.046875 L 4.359375 -2.546875 L 11.15625 -2.546875 L 11.15625 0 Z M 1.265625 0 "/></g></g></g><g fill="#000000" fill-opacity="1"><g transform="translate(405.969711, 289.75861)"><g><path d="M 1.265625 0 L 1.265625 -14.625 L 7.046875 -14.625 C 8.703125 -14.625 9.988281 -14.191406 10.90625 -13.328125 C 11.820312 -12.460938 12.28125 -11.300781 12.28125 -9.84375 C 12.28125 -8.84375 12.054688 -7.988281 11.609375 -7.28125 C 11.171875 -6.570312 10.535156 -6.039062 9.703125 -5.6875 L 12.796875 0 L 9.390625 0 L 6.625 -5.1875 L 4.359375 -5.1875 L 4.359375 0 Z M 4.359375 -7.671875 L 6.46875 -7.671875 C 8.21875 -7.671875 9.09375 -8.394531 9.09375 -9.84375 C 9.09375 -11.34375 8.210938 -12.09375 6.453125 -12.09375 L 4.359375 -12.09375 Z M 4.359375 -7.671875 "/></g></g></g><g fill="#000000" fill-opacity="1"><g transform="translate(419.166488, 289.75861)"><g><path d="M 3.796875 0 L 0.484375 0 L 5.53125 -14.625 L 9.515625 -14.625 L 14.546875 0 L 11.234375 0 L 10.15625 -3.328125 L 4.875 -3.328125 Z M 5.65625 -5.75 L 9.375 -5.75 L 7.578125 -11.28125 L 7.46875 -11.28125 Z M 5.65625 -5.75 "/></g></g></g><g fill="#000000" fill-opacity="1"><g transform="translate(346.606245, 316.285466)"><g><path d="M 15.578125 -10.453125 L 12.140625 -10.453125 C 12.015625 -11.335938 11.640625 -12.03125 11.015625 -12.53125 C 10.390625 -13.039062 9.613281 -13.296875 8.6875 -13.296875 C 7.4375 -13.296875 6.4375 -12.835938 5.6875 -11.921875 C 4.9375 -11.003906 4.5625 -9.710938 4.5625 -8.046875 C 4.5625 -6.328125 4.9375 -5.019531 5.6875 -4.125 C 6.445312 -3.226562 7.4375 -2.78125 8.65625 -2.78125 C 9.5625 -2.78125 10.328125 -3.015625 10.953125 -3.484375 C 11.585938 -3.960938 11.984375 -4.632812 12.140625 -5.5 L 15.578125 -5.484375 C 15.460938 -4.492188 15.113281 -3.5625 14.53125 -2.6875 C 13.945312 -1.820312 13.15625 -1.117188 12.15625 -0.578125 C 11.164062 -0.046875 9.984375 0.21875 8.609375 0.21875 C 7.171875 0.21875 5.882812 -0.101562 4.75 -0.75 C 3.625 -1.40625 2.734375 -2.347656 2.078125 -3.578125 C 1.429688 -4.804688 1.109375 -6.296875 1.109375 -8.046875 C 1.109375 -9.796875 1.4375 -11.285156 2.09375 -12.515625 C 2.757812 -13.742188 3.65625 -14.679688 4.78125 -15.328125 C 5.914062 -15.972656 7.191406 -16.296875 8.609375 -16.296875 C 9.847656 -16.296875 10.960938 -16.066406 11.953125 -15.609375 C 12.953125 -15.148438 13.769531 -14.484375 14.40625 -13.609375 C 15.039062 -12.742188 15.429688 -11.691406 15.578125 -10.453125 Z M 15.578125 -10.453125 "/></g></g></g><g fill="#000000" fill-opacity="1"><g transform="translate(363.229371, 316.285466)"><g><path d="M 0.453125 -16.078125 L 4.265625 -16.078125 L 7.9375 -9.15625 L 8.09375 -9.15625 L 11.75 -16.078125 L 15.5625 -16.078125 L 9.703125 -5.6875 L 9.703125 0 L 6.328125 0 L 6.328125 -5.6875 Z M 0.453125 -16.078125 "/></g></g></g><g fill="#000000" fill-opacity="1"><g transform="translate(379.240319, 316.285466)"><g><path d="M 15.578125 -10.453125 L 12.140625 -10.453125 C 12.015625 -11.335938 11.640625 -12.03125 11.015625 -12.53125 C 10.390625 -13.039062 9.613281 -13.296875 8.6875 -13.296875 C 7.4375 -13.296875 6.4375 -12.835938 5.6875 -11.921875 C 4.9375 -11.003906 4.5625 -9.710938 4.5625 -8.046875 C 4.5625 -6.328125 4.9375 -5.019531 5.6875 -4.125 C 6.445312 -3.226562 7.4375 -2.78125 8.65625 -2.78125 C 9.5625 -2.78125 10.328125 -3.015625 10.953125 -3.484375 C 11.585938 -3.960938 11.984375 -4.632812 12.140625 -5.5 L 15.578125 -5.484375 C 15.460938 -4.492188 15.113281 -3.5625 14.53125 -2.6875 C 13.945312 -1.820312 13.15625 -1.117188 12.15625 -0.578125 C 11.164062 -0.046875 9.984375 0.21875 8.609375 0.21875 C 7.171875 0.21875 5.882812 -0.101562 4.75 -0.75 C 3.625 -1.40625 2.734375 -2.347656 2.078125 -3.578125 C 1.429688 -4.804688 1.109375 -6.296875 1.109375 -8.046875 C 1.109375 -9.796875 1.4375 -11.285156 2.09375 -12.515625 C 2.757812 -13.742188 3.65625 -14.679688 4.78125 -15.328125 C 5.914062 -15.972656 7.191406 -16.296875 8.609375 -16.296875 C 9.847656 -16.296875 10.960938 -16.066406 11.953125 -15.609375 C 12.953125 -15.148438 13.769531 -14.484375 14.40625 -13.609375 C 15.039062 -12.742188 15.429688 -11.691406 15.578125 -10.453125 Z M 15.578125 -10.453125 "/></g></g></g><g fill="#000000" fill-opacity="1"><g transform="translate(395.863445, 316.285466)"><g><path d="M 1.390625 0 L 1.390625 -16.078125 L 4.796875 -16.078125 L 4.796875 -2.796875 L 11.6875 -2.796875 L 11.6875 0 Z M 1.390625 0 "/></g></g></g><g fill="#000000" fill-opacity="1"><g transform="translate(408.405345, 316.285466)"><g><path d="M 1.390625 0 L 1.390625 -16.078125 L 12.234375 -16.078125 L 12.234375 -13.28125 L 4.796875 -13.28125 L 4.796875 -9.4375 L 11.671875 -9.4375 L 11.671875 -6.640625 L 4.796875 -6.640625 L 4.796875 -2.796875 L 12.265625 -2.796875 L 12.265625 0 Z M 1.390625 0 "/></g></g></g><g fill="#000000" fill-opacity="1"><g transform="translate(87.775221, 180.221232)"><g><path d="M 2.453125 0 L 0.3125 0 L 3.578125 -9.453125 L 6.15625 -9.453125 L 9.40625 0 L 7.265625 0 L 6.5625 -2.15625 L 3.15625 -2.15625 Z M 3.65625 -3.71875 L 6.0625 -3.71875 L 4.890625 -7.296875 L 4.828125 -7.296875 Z M 3.65625 -3.71875 "/></g></g></g><g fill="#000000" fill-opacity="1"><g transform="translate(97.494425, 180.221232)"><g><path d="M 4.171875 0 L 0.828125 0 L 0.828125 -9.453125 L 4.203125 -9.453125 C 5.148438 -9.453125 5.96875 -9.265625 6.65625 -8.890625 C 7.34375 -8.515625 7.867188 -7.972656 8.234375 -7.265625 C 8.609375 -6.554688 8.796875 -5.710938 8.796875 -4.734375 C 8.796875 -3.753906 8.609375 -2.910156 8.234375 -2.203125 C 7.867188 -1.492188 7.335938 -0.945312 6.640625 -0.5625 C 5.953125 -0.1875 5.128906 0 4.171875 0 Z M 2.828125 -1.71875 L 4.09375 -1.71875 C 4.976562 -1.71875 5.648438 -1.957031 6.109375 -2.4375 C 6.578125 -2.914062 6.8125 -3.679688 6.8125 -4.734375 C 6.8125 -5.785156 6.578125 -6.546875 6.109375 -7.015625 C 5.648438 -7.492188 4.976562 -7.734375 4.09375 -7.734375 L 2.828125 -7.734375 Z M 2.828125 -1.71875 "/></g></g></g><g fill="#000000" fill-opacity="1"><g transform="translate(106.945962, 180.221232)"><g><path d="M 2.453125 0 L 0.3125 0 L 3.578125 -9.453125 L 6.15625 -9.453125 L 9.40625 0 L 7.265625 0 L 6.5625 -2.15625 L 3.15625 -2.15625 Z M 3.65625 -3.71875 L 6.0625 -3.71875 L 4.890625 -7.296875 L 4.828125 -7.296875 Z M 3.65625 -3.71875 "/></g></g></g><g fill="#000000" fill-opacity="1"><g transform="translate(116.665166, 180.221232)"><g><path d="M 0.828125 0 L 0.828125 -9.453125 L 4.546875 -9.453125 C 5.265625 -9.453125 5.875 -9.316406 6.375 -9.046875 C 6.882812 -8.773438 7.269531 -8.394531 7.53125 -7.90625 C 7.800781 -7.425781 7.9375 -6.875 7.9375 -6.25 C 7.9375 -5.625 7.800781 -5.070312 7.53125 -4.59375 C 7.257812 -4.113281 6.867188 -3.738281 6.359375 -3.46875 C 5.847656 -3.195312 5.226562 -3.0625 4.5 -3.0625 L 2.828125 -3.0625 L 2.828125 0 Z M 2.828125 -4.671875 L 4.171875 -4.671875 C 4.742188 -4.671875 5.171875 -4.816406 5.453125 -5.109375 C 5.734375 -5.398438 5.875 -5.78125 5.875 -6.25 C 5.875 -6.71875 5.734375 -7.097656 5.453125 -7.390625 C 5.171875 -7.679688 4.742188 -7.828125 4.171875 -7.828125 L 2.828125 -7.828125 Z M 2.828125 -4.671875 "/></g></g></g><g fill="#000000" fill-opacity="1"><g transform="translate(125.082948, 180.221232)"><g><path d="M 0.46875 -7.8125 L 0.46875 -9.453125 L 8.234375 -9.453125 L 8.234375 -7.8125 L 5.328125 -7.8125 L 5.328125 0 L 3.359375 0 L 3.359375 -7.8125 Z M 0.46875 -7.8125 "/></g></g></g><g fill="#000000" fill-opacity="1"><g transform="translate(133.768395, 180.221232)"><g/></g></g><g fill="#000000" fill-opacity="1"><g transform="translate(136.78199, 180.221232)"><g><path d="M 0.46875 -7.8125 L 0.46875 -9.453125 L 8.234375 -9.453125 L 8.234375 -7.8125 L 5.328125 -7.8125 L 5.328125 0 L 3.359375 0 L 3.359375 -7.8125 Z M 0.46875 -7.8125 "/></g></g></g><g fill="#000000" fill-opacity="1"><g transform="translate(145.467438, 180.221232)"><g><path d="M 0.828125 0 L 0.828125 -9.453125 L 2.828125 -9.453125 L 2.828125 -5.546875 L 6.875 -5.546875 L 6.875 -9.453125 L 8.875 -9.453125 L 8.875 0 L 6.875 0 L 6.875 -3.90625 L 2.828125 -3.90625 L 2.828125 0 Z M 0.828125 0 "/></g></g></g><g fill="#000000" fill-opacity="1"><g transform="translate(155.16357, 180.221232)"><g><path d="M 0.828125 0 L 0.828125 -9.453125 L 4.546875 -9.453125 C 5.617188 -9.453125 6.453125 -9.171875 7.046875 -8.609375 C 7.640625 -8.054688 7.9375 -7.304688 7.9375 -6.359375 C 7.9375 -5.710938 7.789062 -5.160156 7.5 -4.703125 C 7.21875 -4.242188 6.804688 -3.898438 6.265625 -3.671875 L 8.28125 0 L 6.078125 0 L 4.28125 -3.359375 L 2.828125 -3.359375 L 2.828125 0 Z M 2.828125 -4.953125 L 4.171875 -4.953125 C 5.304688 -4.953125 5.875 -5.421875 5.875 -6.359375 C 5.875 -7.335938 5.304688 -7.828125 4.171875 -7.828125 L 2.828125 -7.828125 Z M 2.828125 -4.953125 "/></g></g></g><g fill="#000000" fill-opacity="1"><g transform="translate(163.692107, 180.221232)"><g><path d="M 9.515625 -4.734375 C 9.515625 -3.703125 9.316406 -2.820312 8.921875 -2.09375 C 8.535156 -1.375 8.007812 -0.820312 7.34375 -0.4375 C 6.675781 -0.0625 5.921875 0.125 5.078125 0.125 C 4.242188 0.125 3.488281 -0.0625 2.8125 -0.4375 C 2.144531 -0.820312 1.617188 -1.375 1.234375 -2.09375 C 0.847656 -2.820312 0.65625 -3.703125 0.65625 -4.734375 C 0.65625 -5.765625 0.847656 -6.640625 1.234375 -7.359375 C 1.617188 -8.078125 2.144531 -8.625 2.8125 -9 C 3.488281 -9.382812 4.242188 -9.578125 5.078125 -9.578125 C 5.921875 -9.578125 6.675781 -9.382812 7.34375 -9 C 8.007812 -8.625 8.535156 -8.078125 8.921875 -7.359375 C 9.316406 -6.640625 9.515625 -5.765625 9.515625 -4.734375 Z M 7.484375 -4.734375 C 7.484375 -5.734375 7.265625 -6.492188 6.828125 -7.015625 C 6.390625 -7.546875 5.804688 -7.8125 5.078125 -7.8125 C 4.359375 -7.8125 3.78125 -7.546875 3.34375 -7.015625 C 2.90625 -6.492188 2.6875 -5.734375 2.6875 -4.734375 C 2.6875 -3.734375 2.90625 -2.96875 3.34375 -2.4375 C 3.78125 -1.90625 4.359375 -1.640625 5.078125 -1.640625 C 5.804688 -1.640625 6.390625 -1.90625 6.828125 -2.4375 C 7.265625 -2.96875 7.484375 -3.734375 7.484375 -4.734375 Z M 7.484375 -4.734375 "/></g></g></g><g fill="#000000" fill-opacity="1"><g transform="translate(173.854357, 180.221232)"><g><path d="M 6.671875 -9.453125 L 8.65625 -9.453125 L 8.65625 -3.203125 C 8.65625 -2.492188 8.488281 -1.890625 8.15625 -1.390625 C 7.820312 -0.890625 7.359375 -0.507812 6.765625 -0.25 C 6.179688 0.0078125 5.503906 0.140625 4.734375 0.140625 C 3.972656 0.140625 3.296875 0.0078125 2.703125 -0.25 C 2.117188 -0.507812 1.660156 -0.890625 1.328125 -1.390625 C 0.992188 -1.890625 0.828125 -2.492188 0.828125 -3.203125 L 0.828125 -9.453125 L 2.828125 -9.453125 L 2.828125 -3.265625 C 2.828125 -2.765625 3.007812 -2.367188 3.375 -2.078125 C 3.738281 -1.785156 4.191406 -1.640625 4.734375 -1.640625 C 5.296875 -1.640625 5.757812 -1.785156 6.125 -2.078125 C 6.488281 -2.367188 6.671875 -2.765625 6.671875 -3.265625 Z M 6.671875 -9.453125 "/></g></g></g><g fill="#000000" fill-opacity="1"><g transform="translate(183.33359, 180.221232)"><g><path d="M 7.09375 -6.40625 C 6.96875 -6.84375 6.734375 -7.1875 6.390625 -7.4375 C 6.046875 -7.6875 5.617188 -7.8125 5.109375 -7.8125 C 4.390625 -7.8125 3.804688 -7.546875 3.359375 -7.015625 C 2.910156 -6.484375 2.6875 -5.722656 2.6875 -4.734375 C 2.6875 -3.742188 2.90625 -2.976562 3.34375 -2.4375 C 3.78125 -1.90625 4.375 -1.640625 5.125 -1.640625 C 5.789062 -1.640625 6.3125 -1.8125 6.6875 -2.15625 C 7.070312 -2.5 7.269531 -2.96875 7.28125 -3.5625 L 5.25 -3.5625 L 5.25 -5.0625 L 9.203125 -5.0625 L 9.203125 -3.875 C 9.203125 -3.039062 9.023438 -2.320312 8.671875 -1.71875 C 8.328125 -1.125 7.847656 -0.664062 7.234375 -0.34375 C 6.617188 -0.03125 5.914062 0.125 5.125 0.125 C 4.238281 0.125 3.457031 -0.0664062 2.78125 -0.453125 C 2.113281 -0.847656 1.59375 -1.40625 1.21875 -2.125 C 0.84375 -2.851562 0.65625 -3.71875 0.65625 -4.71875 C 0.65625 -5.738281 0.847656 -6.613281 1.234375 -7.34375 C 1.628906 -8.070312 2.160156 -8.625 2.828125 -9 C 3.492188 -9.382812 4.242188 -9.578125 5.078125 -9.578125 C 5.796875 -9.578125 6.441406 -9.441406 7.015625 -9.171875 C 7.597656 -8.898438 8.070312 -8.523438 8.4375 -8.046875 C 8.8125 -7.566406 9.039062 -7.019531 9.125 -6.40625 Z M 7.09375 -6.40625 "/></g></g></g><g fill="#000000" fill-opacity="1"><g transform="translate(193.218939, 180.221232)"><g><path d="M 0.828125 0 L 0.828125 -9.453125 L 2.828125 -9.453125 L 2.828125 -5.546875 L 6.875 -5.546875 L 6.875 -9.453125 L 8.875 -9.453125 L 8.875 0 L 6.875 0 L 6.875 -3.90625 L 2.828125 -3.90625 L 2.828125 0 Z M 0.828125 0 "/></g></g></g><g fill="#000000" fill-opacity="1"><g transform="translate(112.232251, 198.221232)"><g><path d="M 0.828125 0 L 0.828125 -9.453125 L 2.828125 -9.453125 L 2.828125 -1.640625 L 6.875 -1.640625 L 6.875 0 Z M 0.828125 0 "/></g></g></g><g fill="#000000" fill-opacity="1"><g transform="translate(119.60703, 198.221232)"><g><path d="M 0.828125 0 L 0.828125 -9.453125 L 7.1875 -9.453125 L 7.1875 -7.8125 L 2.828125 -7.8125 L 2.828125 -5.546875 L 6.859375 -5.546875 L 6.859375 -3.90625 L 2.828125 -3.90625 L 2.828125 -1.640625 L 7.21875 -1.640625 L 7.21875 0 Z M 0.828125 0 "/></g></g></g><g fill="#000000" fill-opacity="1"><g transform="translate(127.567917, 198.221232)"><g><path d="M 2.453125 0 L 0.3125 0 L 3.578125 -9.453125 L 6.15625 -9.453125 L 9.40625 0 L 7.265625 0 L 6.5625 -2.15625 L 3.15625 -2.15625 Z M 3.65625 -3.71875 L 6.0625 -3.71875 L 4.890625 -7.296875 L 4.828125 -7.296875 Z M 3.65625 -3.71875 "/></g></g></g><g fill="#000000" fill-opacity="1"><g transform="translate(137.287121, 198.221232)"><g><path d="M 0.828125 0 L 0.828125 -9.453125 L 4.546875 -9.453125 C 5.617188 -9.453125 6.453125 -9.171875 7.046875 -8.609375 C 7.640625 -8.054688 7.9375 -7.304688 7.9375 -6.359375 C 7.9375 -5.710938 7.789062 -5.160156 7.5 -4.703125 C 7.21875 -4.242188 6.804688 -3.898438 6.265625 -3.671875 L 8.28125 0 L 6.078125 0 L 4.28125 -3.359375 L 2.828125 -3.359375 L 2.828125 0 Z M 2.828125 -4.953125 L 4.171875 -4.953125 C 5.304688 -4.953125 5.875 -5.421875 5.875 -6.359375 C 5.875 -7.335938 5.304688 -7.828125 4.171875 -7.828125 L 2.828125 -7.828125 Z M 2.828125 -4.953125 "/></g></g></g><g fill="#000000" fill-opacity="1"><g transform="translate(145.815658, 198.221232)"><g><path d="M 8.734375 -9.453125 L 8.734375 0 L 7 0 L 2.890625 -5.953125 L 2.828125 -5.953125 L 2.828125 0 L 0.828125 0 L 0.828125 -9.453125 L 2.578125 -9.453125 L 6.65625 -3.515625 L 6.734375 -3.515625 L 6.734375 -9.453125 Z M 8.734375 -9.453125 "/></g></g></g><g fill="#000000" fill-opacity="1"><g transform="translate(155.368728, 198.221232)"><g><path d="M 2.828125 -9.453125 L 2.828125 0 L 0.828125 0 L 0.828125 -9.453125 Z M 2.828125 -9.453125 "/></g></g></g><g fill="#000000" fill-opacity="1"><g transform="translate(159.014587, 198.221232)"><g><path d="M 8.734375 -9.453125 L 8.734375 0 L 7 0 L 2.890625 -5.953125 L 2.828125 -5.953125 L 2.828125 0 L 0.828125 0 L 0.828125 -9.453125 L 2.578125 -9.453125 L 6.65625 -3.515625 L 6.734375 -3.515625 L 6.734375 -9.453125 Z M 8.734375 -9.453125 "/></g></g></g><g fill="#000000" fill-opacity="1"><g transform="translate(168.567656, 198.221232)"><g><path d="M 7.09375 -6.40625 C 6.96875 -6.84375 6.734375 -7.1875 6.390625 -7.4375 C 6.046875 -7.6875 5.617188 -7.8125 5.109375 -7.8125 C 4.390625 -7.8125 3.804688 -7.546875 3.359375 -7.015625 C 2.910156 -6.484375 2.6875 -5.722656 2.6875 -4.734375 C 2.6875 -3.742188 2.90625 -2.976562 3.34375 -2.4375 C 3.78125 -1.90625 4.375 -1.640625 5.125 -1.640625 C 5.789062 -1.640625 6.3125 -1.8125 6.6875 -2.15625 C 7.070312 -2.5 7.269531 -2.96875 7.28125 -3.5625 L 5.25 -3.5625 L 5.25 -5.0625 L 9.203125 -5.0625 L 9.203125 -3.875 C 9.203125 -3.039062 9.023438 -2.320312 8.671875 -1.71875 C 8.328125 -1.125 7.847656 -0.664062 7.234375 -0.34375 C 6.617188 -0.03125 5.914062 0.125 5.125 0.125 C 4.238281 0.125 3.457031 -0.0664062 2.78125 -0.453125 C 2.113281 -0.847656 1.59375 -1.40625 1.21875 -2.125 C 0.84375 -2.851562 0.65625 -3.71875 0.65625 -4.71875 C 0.65625 -5.738281 0.847656 -6.613281 1.234375 -7.34375 C 1.628906 -8.070312 2.160156 -8.625 2.828125 -9 C 3.492188 -9.382812 4.242188 -9.578125 5.078125 -9.578125 C 5.796875 -9.578125 6.441406 -9.441406 7.015625 -9.171875 C 7.597656 -8.898438 8.070312 -8.523438 8.4375 -8.046875 C 8.8125 -7.566406 9.039062 -7.019531 9.125 -6.40625 Z M 7.09375 -6.40625 "/></g></g></g><g fill="#000000" fill-opacity="1"><g transform="translate(100.454908, 391.194174)"><g><path d="M 0.828125 0 L 0.828125 -9.453125 L 4.546875 -9.453125 C 5.617188 -9.453125 6.453125 -9.171875 7.046875 -8.609375 C 7.640625 -8.054688 7.9375 -7.304688 7.9375 -6.359375 C 7.9375 -5.710938 7.789062 -5.160156 7.5 -4.703125 C 7.21875 -4.242188 6.804688 -3.898438 6.265625 -3.671875 L 8.28125 0 L 6.078125 0 L 4.28125 -3.359375 L 2.828125 -3.359375 L 2.828125 0 Z M 2.828125 -4.953125 L 4.171875 -4.953125 C 5.304688 -4.953125 5.875 -5.421875 5.875 -6.359375 C 5.875 -7.335938 5.304688 -7.828125 4.171875 -7.828125 L 2.828125 -7.828125 Z M 2.828125 -4.953125 "/></g></g></g><g fill="#000000" fill-opacity="1"><g transform="translate(108.983446, 391.194174)"><g><path d="M 0.828125 0 L 0.828125 -9.453125 L 7.1875 -9.453125 L 7.1875 -7.8125 L 2.828125 -7.8125 L 2.828125 -5.546875 L 6.859375 -5.546875 L 6.859375 -3.90625 L 2.828125 -3.90625 L 2.828125 -1.640625 L 7.21875 -1.640625 L 7.21875 0 Z M 0.828125 0 "/></g></g></g><g fill="#000000" fill-opacity="1"><g transform="translate(116.944333, 391.194174)"><g><path d="M 2.53125 -9.453125 L 4.8125 -2.265625 L 4.90625 -2.265625 L 7.1875 -9.453125 L 9.40625 -9.453125 L 6.15625 0 L 3.578125 0 L 0.3125 -9.453125 Z M 2.53125 -9.453125 "/></g></g></g><g fill="#000000" fill-opacity="1"><g transform="translate(126.663537, 391.194174)"><g><path d="M 2.828125 -9.453125 L 2.828125 0 L 0.828125 0 L 0.828125 -9.453125 Z M 2.828125 -9.453125 "/></g></g></g><g fill="#000000" fill-opacity="1"><g transform="translate(130.309395, 391.194174)"><g><path d="M 0.828125 0 L 0.828125 -9.453125 L 7.1875 -9.453125 L 7.1875 -7.8125 L 2.828125 -7.8125 L 2.828125 -5.546875 L 6.859375 -5.546875 L 6.859375 -3.90625 L 2.828125 -3.90625 L 2.828125 -1.640625 L 7.21875 -1.640625 L 7.21875 0 Z M 0.828125 0 "/></g></g></g><g fill="#000000" fill-opacity="1"><g transform="translate(138.270283, 391.194174)"><g><path d="M 2.953125 0 L 0.25 -9.453125 L 2.421875 -9.453125 L 4 -2.890625 L 4.078125 -2.890625 L 5.796875 -9.453125 L 7.671875 -9.453125 L 9.390625 -2.875 L 9.46875 -2.875 L 11.03125 -9.453125 L 13.21875 -9.453125 L 10.515625 0 L 8.5625 0 L 6.765625 -6.1875 L 6.6875 -6.1875 L 4.890625 0 Z M 2.953125 0 "/></g></g></g><g fill="#000000" fill-opacity="1"><g transform="translate(151.732265, 391.194174)"><g/></g></g><g fill="#000000" fill-opacity="1"><g transform="translate(154.74586, 391.194174)"><g><path d="M 2.953125 0 L 0.25 -9.453125 L 2.421875 -9.453125 L 4 -2.890625 L 4.078125 -2.890625 L 5.796875 -9.453125 L 7.671875 -9.453125 L 9.390625 -2.875 L 9.46875 -2.875 L 11.03125 -9.453125 L 13.21875 -9.453125 L 10.515625 0 L 8.5625 0 L 6.765625 -6.1875 L 6.6875 -6.1875 L 4.890625 0 Z M 2.953125 0 "/></g></g></g><g fill="#000000" fill-opacity="1"><g transform="translate(168.207842, 391.194174)"><g><path d="M 2.828125 -9.453125 L 2.828125 0 L 0.828125 0 L 0.828125 -9.453125 Z M 2.828125 -9.453125 "/></g></g></g><g fill="#000000" fill-opacity="1"><g transform="translate(171.853701, 391.194174)"><g><path d="M 0.46875 -7.8125 L 0.46875 -9.453125 L 8.234375 -9.453125 L 8.234375 -7.8125 L 5.328125 -7.8125 L 5.328125 0 L 3.359375 0 L 3.359375 -7.8125 Z M 0.46875 -7.8125 "/></g></g></g><g fill="#000000" fill-opacity="1"><g transform="translate(180.539148, 391.194174)"><g><path d="M 0.828125 0 L 0.828125 -9.453125 L 2.828125 -9.453125 L 2.828125 -5.546875 L 6.875 -5.546875 L 6.875 -9.453125 L 8.875 -9.453125 L 8.875 0 L 6.875 0 L 6.875 -3.90625 L 2.828125 -3.90625 L 2.828125 0 Z M 0.828125 0 "/></g></g></g><g fill="#000000" fill-opacity="1"><g transform="translate(114.177564, 409.194173)"><g><path d="M 0.828125 -9.453125 L 3.28125 -9.453125 L 5.890625 -3.109375 L 6 -3.109375 L 8.609375 -9.453125 L 11.078125 -9.453125 L 11.078125 0 L 9.125 0 L 9.125 -6.15625 L 9.046875 -6.15625 L 6.609375 -0.046875 L 5.28125 -0.046875 L 2.84375 -6.171875 L 2.765625 -6.171875 L 2.765625 0 L 0.828125 0 Z M 0.828125 -9.453125 "/></g></g></g><g fill="#000000" fill-opacity="1"><g transform="translate(126.185815, 409.194173)"><g><path d="M 0.828125 0 L 0.828125 -9.453125 L 7.1875 -9.453125 L 7.1875 -7.8125 L 2.828125 -7.8125 L 2.828125 -5.546875 L 6.859375 -5.546875 L 6.859375 -3.90625 L 2.828125 -3.90625 L 2.828125 -1.640625 L 7.21875 -1.640625 L 7.21875 0 Z M 0.828125 0 "/></g></g></g><g fill="#000000" fill-opacity="1"><g transform="translate(134.146702, 409.194173)"><g><path d="M 2.453125 0 L 0.3125 0 L 3.578125 -9.453125 L 6.15625 -9.453125 L 9.40625 0 L 7.265625 0 L 6.5625 -2.15625 L 3.15625 -2.15625 Z M 3.65625 -3.71875 L 6.0625 -3.71875 L 4.890625 -7.296875 L 4.828125 -7.296875 Z M 3.65625 -3.71875 "/></g></g></g><g fill="#000000" fill-opacity="1"><g transform="translate(143.865906, 409.194173)"><g><path d="M 8.734375 -9.453125 L 8.734375 0 L 7 0 L 2.890625 -5.953125 L 2.828125 -5.953125 L 2.828125 0 L 0.828125 0 L 0.828125 -9.453125 L 2.578125 -9.453125 L 6.65625 -3.515625 L 6.734375 -3.515625 L 6.734375 -9.453125 Z M 8.734375 -9.453125 "/></g></g></g><g fill="#000000" fill-opacity="1"><g transform="translate(153.418975, 409.194173)"><g><path d="M 2.828125 -9.453125 L 2.828125 0 L 0.828125 0 L 0.828125 -9.453125 Z M 2.828125 -9.453125 "/></g></g></g><g fill="#000000" fill-opacity="1"><g transform="translate(157.064834, 409.194173)"><g><path d="M 8.734375 -9.453125 L 8.734375 0 L 7 0 L 2.890625 -5.953125 L 2.828125 -5.953125 L 2.828125 0 L 0.828125 0 L 0.828125 -9.453125 L 2.578125 -9.453125 L 6.65625 -3.515625 L 6.734375 -3.515625 L 6.734375 -9.453125 Z M 8.734375 -9.453125 "/></g></g></g><g fill="#000000" fill-opacity="1"><g transform="translate(166.617904, 409.194173)"><g><path d="M 7.09375 -6.40625 C 6.96875 -6.84375 6.734375 -7.1875 6.390625 -7.4375 C 6.046875 -7.6875 5.617188 -7.8125 5.109375 -7.8125 C 4.390625 -7.8125 3.804688 -7.546875 3.359375 -7.015625 C 2.910156 -6.484375 2.6875 -5.722656 2.6875 -4.734375 C 2.6875 -3.742188 2.90625 -2.976562 3.34375 -2.4375 C 3.78125 -1.90625 4.375 -1.640625 5.125 -1.640625 C 5.789062 -1.640625 6.3125 -1.8125 6.6875 -2.15625 C 7.070312 -2.5 7.269531 -2.96875 7.28125 -3.5625 L 5.25 -3.5625 L 5.25 -5.0625 L 9.203125 -5.0625 L 9.203125 -3.875 C 9.203125 -3.039062 9.023438 -2.320312 8.671875 -1.71875 C 8.328125 -1.125 7.847656 -0.664062 7.234375 -0.34375 C 6.617188 -0.03125 5.914062 0.125 5.125 0.125 C 4.238281 0.125 3.457031 -0.0664062 2.78125 -0.453125 C 2.113281 -0.847656 1.59375 -1.40625 1.21875 -2.125 C 0.84375 -2.851562 0.65625 -3.71875 0.65625 -4.71875 C 0.65625 -5.738281 0.847656 -6.613281 1.234375 -7.34375 C 1.628906 -8.070312 2.160156 -8.625 2.828125 -9 C 3.492188 -9.382812 4.242188 -9.578125 5.078125 -9.578125 C 5.796875 -9.578125 6.441406 -9.441406 7.015625 -9.171875 C 7.597656 -8.898438 8.070312 -8.523438 8.4375 -8.046875 C 8.8125 -7.566406 9.039062 -7.019531 9.125 -6.40625 Z M 7.09375 -6.40625 "/></g></g></g><g fill="#000000" fill-opacity="1"><g transform="translate(604.060629, 400.844154)"><g><path d="M 0.828125 0 L 0.828125 -9.453125 L 7.1875 -9.453125 L 7.1875 -7.8125 L 2.828125 -7.8125 L 2.828125 -5.546875 L 6.859375 -5.546875 L 6.859375 -3.90625 L 2.828125 -3.90625 L 2.828125 -1.640625 L 7.21875 -1.640625 L 7.21875 0 Z M 0.828125 0 "/></g></g></g><g fill="#000000" fill-opacity="1"><g transform="translate(612.021516, 400.844154)"><g><path d="M 8.734375 -9.453125 L 8.734375 0 L 7 0 L 2.890625 -5.953125 L 2.828125 -5.953125 L 2.828125 0 L 0.828125 0 L 0.828125 -9.453125 L 2.578125 -9.453125 L 6.65625 -3.515625 L 6.734375 -3.515625 L 6.734375 -9.453125 Z M 8.734375 -9.453125 "/></g></g></g><g fill="#000000" fill-opacity="1"><g transform="translate(621.574586, 400.844154)"><g><path d="M 7.09375 -6.40625 C 6.96875 -6.84375 6.734375 -7.1875 6.390625 -7.4375 C 6.046875 -7.6875 5.617188 -7.8125 5.109375 -7.8125 C 4.390625 -7.8125 3.804688 -7.546875 3.359375 -7.015625 C 2.910156 -6.484375 2.6875 -5.722656 2.6875 -4.734375 C 2.6875 -3.742188 2.90625 -2.976562 3.34375 -2.4375 C 3.78125 -1.90625 4.375 -1.640625 5.125 -1.640625 C 5.789062 -1.640625 6.3125 -1.8125 6.6875 -2.15625 C 7.070312 -2.5 7.269531 -2.96875 7.28125 -3.5625 L 5.25 -3.5625 L 5.25 -5.0625 L 9.203125 -5.0625 L 9.203125 -3.875 C 9.203125 -3.039062 9.023438 -2.320312 8.671875 -1.71875 C 8.328125 -1.125 7.847656 -0.664062 7.234375 -0.34375 C 6.617188 -0.03125 5.914062 0.125 5.125 0.125 C 4.238281 0.125 3.457031 -0.0664062 2.78125 -0.453125 C 2.113281 -0.847656 1.59375 -1.40625 1.21875 -2.125 C 0.84375 -2.851562 0.65625 -3.71875 0.65625 -4.71875 C 0.65625 -5.738281 0.847656 -6.613281 1.234375 -7.34375 C 1.628906 -8.070312 2.160156 -8.625 2.828125 -9 C 3.492188 -9.382812 4.242188 -9.578125 5.078125 -9.578125 C 5.796875 -9.578125 6.441406 -9.441406 7.015625 -9.171875 C 7.597656 -8.898438 8.070312 -8.523438 8.4375 -8.046875 C 8.8125 -7.566406 9.039062 -7.019531 9.125 -6.40625 Z M 7.09375 -6.40625 "/></g></g></g><g fill="#000000" fill-opacity="1"><g transform="translate(631.459935, 400.844154)"><g><path d="M 2.453125 0 L 0.3125 0 L 3.578125 -9.453125 L 6.15625 -9.453125 L 9.40625 0 L 7.265625 0 L 6.5625 -2.15625 L 3.15625 -2.15625 Z M 3.65625 -3.71875 L 6.0625 -3.71875 L 4.890625 -7.296875 L 4.828125 -7.296875 Z M 3.65625 -3.71875 "/></g></g></g><g fill="#000000" fill-opacity="1"><g transform="translate(641.179138, 400.844154)"><g><path d="M 7.09375 -6.40625 C 6.96875 -6.84375 6.734375 -7.1875 6.390625 -7.4375 C 6.046875 -7.6875 5.617188 -7.8125 5.109375 -7.8125 C 4.390625 -7.8125 3.804688 -7.546875 3.359375 -7.015625 C 2.910156 -6.484375 2.6875 -5.722656 2.6875 -4.734375 C 2.6875 -3.742188 2.90625 -2.976562 3.34375 -2.4375 C 3.78125 -1.90625 4.375 -1.640625 5.125 -1.640625 C 5.789062 -1.640625 6.3125 -1.8125 6.6875 -2.15625 C 7.070312 -2.5 7.269531 -2.96875 7.28125 -3.5625 L 5.25 -3.5625 L 5.25 -5.0625 L 9.203125 -5.0625 L 9.203125 -3.875 C 9.203125 -3.039062 9.023438 -2.320312 8.671875 -1.71875 C 8.328125 -1.125 7.847656 -0.664062 7.234375 -0.34375 C 6.617188 -0.03125 5.914062 0.125 5.125 0.125 C 4.238281 0.125 3.457031 -0.0664062 2.78125 -0.453125 C 2.113281 -0.847656 1.59375 -1.40625 1.21875 -2.125 C 0.84375 -2.851562 0.65625 -3.71875 0.65625 -4.71875 C 0.65625 -5.738281 0.847656 -6.613281 1.234375 -7.34375 C 1.628906 -8.070312 2.160156 -8.625 2.828125 -9 C 3.492188 -9.382812 4.242188 -9.578125 5.078125 -9.578125 C 5.796875 -9.578125 6.441406 -9.441406 7.015625 -9.171875 C 7.597656 -8.898438 8.070312 -8.523438 8.4375 -8.046875 C 8.8125 -7.566406 9.039062 -7.019531 9.125 -6.40625 Z M 7.09375 -6.40625 "/></g></g></g><g fill="#000000" fill-opacity="1"><g transform="translate(651.064487, 400.844154)"><g><path d="M 0.828125 0 L 0.828125 -9.453125 L 7.1875 -9.453125 L 7.1875 -7.8125 L 2.828125 -7.8125 L 2.828125 -5.546875 L 6.859375 -5.546875 L 6.859375 -3.90625 L 2.828125 -3.90625 L 2.828125 -1.640625 L 7.21875 -1.640625 L 7.21875 0 Z M 0.828125 0 "/></g></g></g><g fill="#000000" fill-opacity="1"><g transform="translate(591.310629, 188.471232)"><g><path d="M 2.53125 -9.453125 L 4.8125 -2.265625 L 4.90625 -2.265625 L 7.1875 -9.453125 L 9.40625 -9.453125 L 6.15625 0 L 3.578125 0 L 0.3125 -9.453125 Z M 2.53125 -9.453125 "/></g></g></g><g fill="#000000" fill-opacity="1"><g transform="translate(601.029833, 188.471232)"><g><path d="M 2.828125 -9.453125 L 2.828125 0 L 0.828125 0 L 0.828125 -9.453125 Z M 2.828125 -9.453125 "/></g></g></g><g fill="#000000" fill-opacity="1"><g transform="translate(604.675691, 188.471232)"><g><path d="M 5.953125 -6.734375 C 5.910156 -7.109375 5.75 -7.394531 5.46875 -7.59375 C 5.1875 -7.800781 4.804688 -7.90625 4.328125 -7.90625 C 3.835938 -7.90625 3.460938 -7.804688 3.203125 -7.609375 C 2.941406 -7.410156 2.8125 -7.160156 2.8125 -6.859375 C 2.8125 -6.515625 2.957031 -6.253906 3.25 -6.078125 C 3.550781 -5.910156 3.90625 -5.78125 4.3125 -5.6875 L 5.15625 -5.484375 C 5.707031 -5.359375 6.195312 -5.175781 6.625 -4.9375 C 7.050781 -4.707031 7.382812 -4.40625 7.625 -4.03125 C 7.875 -3.664062 8 -3.222656 8 -2.703125 C 7.988281 -1.835938 7.660156 -1.144531 7.015625 -0.625 C 6.378906 -0.113281 5.484375 0.140625 4.328125 0.140625 C 3.179688 0.140625 2.265625 -0.117188 1.578125 -0.640625 C 0.890625 -1.171875 0.535156 -1.945312 0.515625 -2.96875 L 2.453125 -2.96875 C 2.484375 -2.488281 2.664062 -2.128906 3 -1.890625 C 3.34375 -1.660156 3.773438 -1.546875 4.296875 -1.546875 C 4.804688 -1.546875 5.210938 -1.648438 5.515625 -1.859375 C 5.816406 -2.078125 5.972656 -2.359375 5.984375 -2.703125 C 5.972656 -3.023438 5.828125 -3.269531 5.546875 -3.4375 C 5.273438 -3.613281 4.882812 -3.765625 4.375 -3.890625 L 3.34375 -4.140625 C 2.539062 -4.335938 1.910156 -4.640625 1.453125 -5.046875 C 0.992188 -5.460938 0.765625 -6.019531 0.765625 -6.71875 C 0.765625 -7.289062 0.914062 -7.789062 1.21875 -8.21875 C 1.53125 -8.65625 1.957031 -8.988281 2.5 -9.21875 C 3.039062 -9.457031 3.65625 -9.578125 4.34375 -9.578125 C 5.050781 -9.578125 5.664062 -9.457031 6.1875 -9.21875 C 6.707031 -8.976562 7.113281 -8.644531 7.40625 -8.21875 C 7.707031 -7.789062 7.859375 -7.296875 7.859375 -6.734375 Z M 5.953125 -6.734375 "/></g></g></g><g fill="#000000" fill-opacity="1"><g transform="translate(613.185769, 188.471232)"><g><path d="M 6.671875 -9.453125 L 8.65625 -9.453125 L 8.65625 -3.203125 C 8.65625 -2.492188 8.488281 -1.890625 8.15625 -1.390625 C 7.820312 -0.890625 7.359375 -0.507812 6.765625 -0.25 C 6.179688 0.0078125 5.503906 0.140625 4.734375 0.140625 C 3.972656 0.140625 3.296875 0.0078125 2.703125 -0.25 C 2.117188 -0.507812 1.660156 -0.890625 1.328125 -1.390625 C 0.992188 -1.890625 0.828125 -2.492188 0.828125 -3.203125 L 0.828125 -9.453125 L 2.828125 -9.453125 L 2.828125 -3.265625 C 2.828125 -2.765625 3.007812 -2.367188 3.375 -2.078125 C 3.738281 -1.785156 4.191406 -1.640625 4.734375 -1.640625 C 5.296875 -1.640625 5.757812 -1.785156 6.125 -2.078125 C 6.488281 -2.367188 6.671875 -2.765625 6.671875 -3.265625 Z M 6.671875 -9.453125 "/></g></g></g><g fill="#000000" fill-opacity="1"><g transform="translate(622.665002, 188.471232)"><g><path d="M 2.453125 0 L 0.3125 0 L 3.578125 -9.453125 L 6.15625 -9.453125 L 9.40625 0 L 7.265625 0 L 6.5625 -2.15625 L 3.15625 -2.15625 Z M 3.65625 -3.71875 L 6.0625 -3.71875 L 4.890625 -7.296875 L 4.828125 -7.296875 Z M 3.65625 -3.71875 "/></g></g></g><g fill="#000000" fill-opacity="1"><g transform="translate(632.384205, 188.471232)"><g><path d="M 0.828125 0 L 0.828125 -9.453125 L 2.828125 -9.453125 L 2.828125 -1.640625 L 6.875 -1.640625 L 6.875 0 Z M 0.828125 0 "/></g></g></g><g fill="#000000" fill-opacity="1"><g transform="translate(639.758984, 188.471232)"><g><path d="M 2.828125 -9.453125 L 2.828125 0 L 0.828125 0 L 0.828125 -9.453125 Z M 2.828125 -9.453125 "/></g></g></g><g fill="#000000" fill-opacity="1"><g transform="translate(643.404842, 188.471232)"><g><path d="M 0.71875 0 L 0.71875 -1.1875 L 5.4375 -7.8125 L 0.71875 -7.8125 L 0.71875 -9.453125 L 7.953125 -9.453125 L 7.953125 -8.265625 L 3.234375 -1.640625 L 7.953125 -1.640625 L 7.953125 0 Z M 0.71875 0 "/></g></g></g><g fill="#000000" fill-opacity="1"><g transform="translate(652.07183, 188.471232)"><g><path d="M 0.828125 0 L 0.828125 -9.453125 L 7.1875 -9.453125 L 7.1875 -7.8125 L 2.828125 -7.8125 L 2.828125 -5.546875 L 6.859375 -5.546875 L 6.859375 -3.90625 L 2.828125 -3.90625 L 2.828125 -1.640625 L 7.21875 -1.640625 L 7.21875 0 Z M 0.828125 0 "/></g></g></g><g fill="#000000" fill-opacity="1"><g transform="translate(660.032718, 188.471232)"><g/></g></g><g fill="#000000" fill-opacity="1"><g transform="translate(663.046313, 188.471232)"><g><path d="M 3.546875 -0.5625 L 3.546875 -2.96875 L 1.140625 -2.96875 L 1.140625 -4.609375 L 3.546875 -4.609375 L 3.546875 -7.015625 L 5.203125 -7.015625 L 5.203125 -4.609375 L 7.609375 -4.609375 L 7.609375 -2.96875 L 5.203125 -2.96875 L 5.203125 -0.5625 Z M 3.546875 -0.5625 "/></g></g></g></svg>